<?xml version="1.0" encoding="us-ascii" standalone="no"?><svg xmlns="http://www.w3.org/2000/svg" xmlns:xlink="http://www.w3.org/1999/xlink" contentStyleType="text/css" height="3122px" preserveAspectRatio="none" style="width:954px;height:3122px;background:#FFFFFF;" version="1.1" viewBox="0 0 954 3122" width="954px" zoomAndPan="magnify"><defs/><g><text fill="#000000" font-family="Verdana" font-size="22" font-weight="bold" lengthAdjust="spacing" textLength="391" x="277.165" y="37.1182">UML MCP &#28210;&#26579;&#26381;&#21153; - &#35831;&#27714;&#29366;&#24577;&#36716;&#25442;&#22270;</text><ellipse cx="103" cy="68.7373" fill="#FFFFFF" rx="10" ry="10" style="stroke:#000000;stroke-width:1.0;"/><g id="&#25509;&#25910;&#35831;&#27714;"><rect fill="#FFFFFF" height="50" rx="12.5" ry="12.5" style="stroke:#000000;stroke-width:1.0;" width="76" x="65" y="198.9373"/><line style="stroke:#000000;stroke-width:1.0;" x1="65" x2="141" y1="225.952" y2="225.952"/><text fill="#000000" font-family="Verdana" font-size="14" lengthAdjust="spacing" textLength="56" x="75" y="218.0125">&#25509;&#25910;&#35831;&#27714;</text></g><g id="&#21442;&#25968;&#39564;&#35777;"><rect fill="#FFFFFF" height="50" rx="12.5" ry="12.5" style="stroke:#000000;stroke-width:1.0;" width="76" x="65" y="369.1373"/><line style="stroke:#000000;stroke-width:1.0;" x1="65" x2="141" y1="396.152" y2="396.152"/><text fill="#000000" font-family="Verdana" font-size="14" lengthAdjust="spacing" textLength="56" x="75" y="388.2125">&#21442;&#25968;&#39564;&#35777;</text></g><g id="&#21442;&#25968;&#38169;&#35823;"><rect fill="#FFFFFF" height="50" rx="12.5" ry="12.5" style="stroke:#000000;stroke-width:1.0;" width="76" x="12" y="583.5373"/><line style="stroke:#000000;stroke-width:1.0;" x1="12" x2="88" y1="610.552" y2="610.552"/><text fill="#000000" font-family="Verdana" font-size="14" lengthAdjust="spacing" textLength="56" x="22" y="602.6125">&#21442;&#25968;&#38169;&#35823;</text></g><g id="&#32531;&#23384;&#26816;&#26597;"><rect fill="#FFFFFF" height="50" rx="12.5" ry="12.5" style="stroke:#000000;stroke-width:1.0;" width="76" x="127" y="499.8373"/><line style="stroke:#000000;stroke-width:1.0;" x1="127" x2="203" y1="526.852" y2="526.852"/><text fill="#000000" font-family="Verdana" font-size="14" lengthAdjust="spacing" textLength="56" x="137" y="518.9125">&#32531;&#23384;&#26816;&#26597;</text></g><ellipse cx="545" cy="3105.5773" fill="none" rx="11" ry="11" style="stroke:#000000;stroke-width:1.0;"/><ellipse cx="545" cy="3105.5773" fill="#FFFFFF" rx="6" ry="6" style="stroke:#000000;stroke-width:1.0;"/><g id="&#32531;&#23384;&#21629;&#20013;"><rect fill="#FFFFFF" height="50" rx="12.5" ry="12.5" style="stroke:#000000;stroke-width:1.0;" width="76" x="251" y="743.5373"/><line style="stroke:#000000;stroke-width:1.0;" x1="251" x2="327" y1="770.552" y2="770.552"/><text fill="#000000" font-family="Verdana" font-size="14" lengthAdjust="spacing" textLength="56" x="261" y="762.6125">&#32531;&#23384;&#21629;&#20013;</text></g><g id="&#20934;&#22791;&#28210;&#26579;"><rect fill="#FFFFFF" height="50" rx="12.5" ry="12.5" style="stroke:#000000;stroke-width:1.0;" width="76" x="127" y="663.5373"/><line style="stroke:#000000;stroke-width:1.0;" x1="127" x2="203" y1="690.552" y2="690.552"/><text fill="#000000" font-family="Verdana" font-size="14" lengthAdjust="spacing" textLength="56" x="137" y="682.6125">&#20934;&#22791;&#28210;&#26579;</text></g><g id="&#36820;&#22238;&#32467;&#26524;"><rect fill="#FFFFFF" height="50" rx="12.5" ry="12.5" style="stroke:#000000;stroke-width:1.0;" width="76" x="404" y="2506.5673"/><line style="stroke:#000000;stroke-width:1.0;" x1="404" x2="480" y1="2533.582" y2="2533.582"/><text fill="#000000" font-family="Verdana" font-size="14" lengthAdjust="spacing" textLength="56" x="414" y="2525.6425">&#36820;&#22238;&#32467;&#26524;</text></g><g id="&#24182;&#21457;&#26816;&#26597;"><rect fill="#FFFFFF" height="50" rx="12.5" ry="12.5" style="stroke:#000000;stroke-width:1.0;" width="76" x="127" y="823.5373"/><line style="stroke:#000000;stroke-width:1.0;" x1="127" x2="203" y1="850.552" y2="850.552"/><text fill="#000000" font-family="Verdana" font-size="14" lengthAdjust="spacing" textLength="56" x="137" y="842.6125">&#24182;&#21457;&#26816;&#26597;</text></g><g id="&#24182;&#21457;&#36229;&#38480;"><rect fill="#FFFFFF" height="50" rx="12.5" ry="12.5" style="stroke:#000000;stroke-width:1.0;" width="76" x="123" y="1030.5373"/><line style="stroke:#000000;stroke-width:1.0;" x1="123" x2="199" y1="1057.552" y2="1057.552"/><text fill="#000000" font-family="Verdana" font-size="14" lengthAdjust="spacing" textLength="56" x="133" y="1049.6125">&#24182;&#21457;&#36229;&#38480;</text></g><g id="&#35821;&#27861;&#39564;&#35777;"><rect fill="#FFFFFF" height="50" rx="12.5" ry="12.5" style="stroke:#000000;stroke-width:1.0;" width="76" x="540" y="950.5373"/><line style="stroke:#000000;stroke-width:1.0;" x1="540" x2="616" y1="977.552" y2="977.552"/><text fill="#000000" font-family="Verdana" font-size="14" lengthAdjust="spacing" textLength="56" x="550" y="969.6125">&#35821;&#27861;&#39564;&#35777;</text></g><g id="&#35821;&#27861;&#38169;&#35823;"><rect fill="#FFFFFF" height="50" rx="12.5" ry="12.5" style="stroke:#000000;stroke-width:1.0;" width="76" x="821" y="1696.5473"/><line style="stroke:#000000;stroke-width:1.0;" x1="821" x2="897" y1="1723.562" y2="1723.562"/><text fill="#000000" font-family="Verdana" font-size="14" lengthAdjust="spacing" textLength="56" x="831" y="1715.6225">&#35821;&#27861;&#38169;&#35823;</text></g><path d="M509.5,1110.5373 L646.5,1110.5373 A12.5,12.5 0 0 1 659,1123.0373 L659,1137.552 L497,1137.552 L497,1123.0373 A12.5,12.5 0 0 1 509.5,1110.5373 " fill="#FFFFFF" style="stroke:#FFFFFF;stroke-width:1.0;"/><path d="M497,1137.552 L659,1137.552 L659,1654.052 A12.5,12.5 0 0 1 646.5,1666.552 L509.5,1666.552 A12.5,12.5 0 0 1 497,1654.052 L497,1137.552 " fill="#FFFFFF" style="stroke:#FFFFFF;stroke-width:1.0;"/><rect fill="none" height="556.0146" rx="12.5" ry="12.5" style="stroke:#000000;stroke-width:1.0;" width="162" x="497" y="1110.5373"/><line style="stroke:#000000;stroke-width:1.0;" x1="497" x2="659" y1="1137.552" y2="1137.552"/><text fill="#000000" font-family="Verdana" font-size="14" lengthAdjust="spacing" textLength="56" x="550" y="1129.6125">&#25191;&#34892;&#28210;&#26579;</text><ellipse cx="579.5" cy="1158.552" fill="#FFFFFF" rx="10" ry="10" style="stroke:#000000;stroke-width:1.0;"/><g id="&#25191;&#34892;&#28210;&#26579;.&#21019;&#24314;&#20020;&#26102;&#25991;&#20214;"><rect fill="#FFFFFF" height="50" rx="12.5" ry="12.5" style="stroke:#000000;stroke-width:1.0;" width="104" x="527.5" y="1204.552"/><line style="stroke:#000000;stroke-width:1.0;" x1="527.5" x2="631.5" y1="1231.5666" y2="1231.5666"/><text fill="#000000" font-family="Verdana" font-size="14" lengthAdjust="spacing" textLength="84" x="537.5" y="1223.6271">&#21019;&#24314;&#20020;&#26102;&#25991;&#20214;</text></g><g id="&#25191;&#34892;&#28210;&#26579;.&#20889;&#20837;UML&#20195;&#30721;"><rect fill="#FFFFFF" height="50" rx="12.5" ry="12.5" style="stroke:#000000;stroke-width:1.0;" width="106" x="526.5" y="1290.552"/><line style="stroke:#000000;stroke-width:1.0;" x1="526.5" x2="632.5" y1="1317.5666" y2="1317.5666"/><text fill="#000000" font-family="Verdana" font-size="14" lengthAdjust="spacing" textLength="86" x="536.5" y="1309.6271">&#20889;&#20837;UML&#20195;&#30721;</text></g><g id="&#25191;&#34892;&#28210;&#26579;.&#25191;&#34892;PlantUML&#21629;&#20196;"><rect fill="#FFFFFF" height="50" rx="12.5" ry="12.5" style="stroke:#000000;stroke-width:1.0;" width="141" x="509" y="1376.552"/><line style="stroke:#000000;stroke-width:1.0;" x1="509" x2="650" y1="1403.5666" y2="1403.5666"/><text fill="#000000" font-family="Verdana" font-size="14" lengthAdjust="spacing" textLength="121" x="519" y="1395.6271">&#25191;&#34892;PlantUML&#21629;&#20196;</text></g><g id="&#25191;&#34892;&#28210;&#26579;.&#35835;&#21462;&#36755;&#20986;&#25991;&#20214;"><rect fill="#FFFFFF" height="50" rx="12.5" ry="12.5" style="stroke:#000000;stroke-width:1.0;" width="104" x="527.5" y="1462.552"/><line style="stroke:#000000;stroke-width:1.0;" x1="527.5" x2="631.5" y1="1489.5666" y2="1489.5666"/><text fill="#000000" font-family="Verdana" font-size="14" lengthAdjust="spacing" textLength="84" x="537.5" y="1481.6271">&#35835;&#21462;&#36755;&#20986;&#25991;&#20214;</text></g><g id="&#25191;&#34892;&#28210;&#26579;.&#28165;&#29702;&#20020;&#26102;&#25991;&#20214;"><rect fill="#FFFFFF" height="50" rx="12.5" ry="12.5" style="stroke:#000000;stroke-width:1.0;" width="104" x="527.5" y="1548.552"/><line style="stroke:#000000;stroke-width:1.0;" x1="527.5" x2="631.5" y1="1575.5666" y2="1575.5666"/><text fill="#000000" font-family="Verdana" font-size="14" lengthAdjust="spacing" textLength="84" x="537.5" y="1567.6271">&#28165;&#29702;&#20020;&#26102;&#25991;&#20214;</text></g><ellipse cx="579.5" cy="1645.552" fill="none" rx="11" ry="11" style="stroke:#000000;stroke-width:1.0;"/><ellipse cx="579.5" cy="1645.552" fill="#FFFFFF" rx="6" ry="6" style="stroke:#000000;stroke-width:1.0;"/><!--link *start*???? to ??????--><g id="link_*start*&#25191;&#34892;&#28210;&#26579;_&#21019;&#24314;&#20020;&#26102;&#25991;&#20214;"><path d="M579.5,1168.862 C579.5,1177.902 579.5,1186.042 579.5,1198.282 " fill="none" id="*start*&#25191;&#34892;&#28210;&#26579;-to-&#21019;&#24314;&#20020;&#26102;&#25991;&#20214;" style="stroke:#000000;stroke-width:1.0;"/><polygon fill="#000000" points="579.5,1204.282,583.5,1195.282,579.5,1199.282,575.5,1195.282,579.5,1204.282" style="stroke:#000000;stroke-width:1.0;"/></g><!--link ?????? to ??UML??--><g id="link_&#21019;&#24314;&#20020;&#26102;&#25991;&#20214;_&#20889;&#20837;UML&#20195;&#30721;"><path d="M579.5,1254.852 C579.5,1265.992 579.5,1273.172 579.5,1284.312 " fill="none" id="&#21019;&#24314;&#20020;&#26102;&#25991;&#20214;-to-&#20889;&#20837;UML&#20195;&#30721;" style="stroke:#000000;stroke-width:1.0;"/><polygon fill="#000000" points="579.5,1290.312,583.5,1281.312,579.5,1285.312,575.5,1281.312,579.5,1290.312" style="stroke:#000000;stroke-width:1.0;"/></g><!--link ??UML?? to ??PlantUML??--><g id="link_&#20889;&#20837;UML&#20195;&#30721;_&#25191;&#34892;PlantUML&#21629;&#20196;"><path d="M579.5,1340.852 C579.5,1351.992 579.5,1359.172 579.5,1370.312 " fill="none" id="&#20889;&#20837;UML&#20195;&#30721;-to-&#25191;&#34892;PlantUML&#21629;&#20196;" style="stroke:#000000;stroke-width:1.0;"/><polygon fill="#000000" points="579.5,1376.312,583.5,1367.312,579.5,1371.312,575.5,1367.312,579.5,1376.312" style="stroke:#000000;stroke-width:1.0;"/></g><!--link ??PlantUML?? to ??????--><g id="link_&#25191;&#34892;PlantUML&#21629;&#20196;_&#35835;&#21462;&#36755;&#20986;&#25991;&#20214;"><path d="M579.5,1426.852 C579.5,1437.992 579.5,1445.172 579.5,1456.312 " fill="none" id="&#25191;&#34892;PlantUML&#21629;&#20196;-to-&#35835;&#21462;&#36755;&#20986;&#25991;&#20214;" style="stroke:#000000;stroke-width:1.0;"/><polygon fill="#000000" points="579.5,1462.312,583.5,1453.312,579.5,1457.312,575.5,1453.312,579.5,1462.312" style="stroke:#000000;stroke-width:1.0;"/></g><!--link ?????? to ??????--><g id="link_&#35835;&#21462;&#36755;&#20986;&#25991;&#20214;_&#28165;&#29702;&#20020;&#26102;&#25991;&#20214;"><path d="M579.5,1512.852 C579.5,1523.992 579.5,1531.172 579.5,1542.312 " fill="none" id="&#35835;&#21462;&#36755;&#20986;&#25991;&#20214;-to-&#28165;&#29702;&#20020;&#26102;&#25991;&#20214;" style="stroke:#000000;stroke-width:1.0;"/><polygon fill="#000000" points="579.5,1548.312,583.5,1539.312,579.5,1543.312,575.5,1539.312,579.5,1548.312" style="stroke:#000000;stroke-width:1.0;"/></g><!--link ?????? to *end*????--><g id="link_&#28165;&#29702;&#20020;&#26102;&#25991;&#20214;_*end*&#25191;&#34892;&#28210;&#26579;"><path d="M579.5,1599.032 C579.5,1611.022 579.5,1618.822 579.5,1628.052 " fill="none" id="&#28165;&#29702;&#20020;&#26102;&#25991;&#20214;-to-*end*&#25191;&#34892;&#28210;&#26579;" style="stroke:#000000;stroke-width:1.0;"/><polygon fill="#000000" points="579.5,1634.052,583.5,1625.052,579.5,1629.052,575.5,1625.052,579.5,1634.052" style="stroke:#000000;stroke-width:1.0;"/></g><g id="&#28210;&#26579;&#20013;"><rect fill="#FFFFFF" height="50" rx="12.5" ry="12.5" style="stroke:#000000;stroke-width:1.0;" width="62" x="555" y="1776.5473"/><line style="stroke:#000000;stroke-width:1.0;" x1="555" x2="617" y1="1803.562" y2="1803.562"/><text fill="#000000" font-family="Verdana" font-size="14" lengthAdjust="spacing" textLength="42" x="565" y="1795.6225">&#28210;&#26579;&#20013;</text></g><g id="&#28210;&#26579;&#36229;&#26102;"><rect fill="#FFFFFF" height="50" rx="12.5" ry="12.5" style="stroke:#000000;stroke-width:1.0;" width="76" x="698" y="1983.5473"/><line style="stroke:#000000;stroke-width:1.0;" x1="698" x2="774" y1="2010.562" y2="2010.562"/><text fill="#000000" font-family="Verdana" font-size="14" lengthAdjust="spacing" textLength="56" x="708" y="2002.6225">&#28210;&#26579;&#36229;&#26102;</text></g><g id="&#28210;&#26579;&#22833;&#36133;"><rect fill="#FFFFFF" height="50" rx="12.5" ry="12.5" style="stroke:#000000;stroke-width:1.0;" width="76" x="547" y="2426.5673"/><line style="stroke:#000000;stroke-width:1.0;" x1="547" x2="623" y1="2453.582" y2="2453.582"/><text fill="#000000" font-family="Verdana" font-size="14" lengthAdjust="spacing" textLength="56" x="557" y="2445.6425">&#28210;&#26579;&#22833;&#36133;</text></g><g id="&#28210;&#26579;&#25104;&#21151;"><rect fill="#FFFFFF" height="50" rx="12.5" ry="12.5" style="stroke:#000000;stroke-width:1.0;" width="76" x="406" y="1903.5473"/><line style="stroke:#000000;stroke-width:1.0;" x1="406" x2="482" y1="1930.562" y2="1930.562"/><text fill="#000000" font-family="Verdana" font-size="14" lengthAdjust="spacing" textLength="56" x="416" y="1922.6225">&#28210;&#26579;&#25104;&#21151;</text></g><path d="M355.83,2063.5473 L528.17,2063.5473 A12.5,12.5 0 0 1 540.67,2076.0473 L540.67,2090.562 L343.33,2090.562 L343.33,2076.0473 A12.5,12.5 0 0 1 355.83,2063.5473 " fill="#FFFFFF" style="stroke:#FFFFFF;stroke-width:1.0;"/><path d="M343.33,2090.562 L540.67,2090.562 L540.67,2384.062 A12.5,12.5 0 0 1 528.17,2396.562 L355.83,2396.562 A12.5,12.5 0 0 1 343.33,2384.062 L343.33,2090.562 " fill="#FFFFFF" style="stroke:#FFFFFF;stroke-width:1.0;"/><rect fill="none" height="333.0146" rx="12.5" ry="12.5" style="stroke:#000000;stroke-width:1.0;" width="197.34" x="343.33" y="2063.5473"/><line style="stroke:#000000;stroke-width:1.0;" x1="343.33" x2="540.67" y1="2090.562" y2="2090.562"/><text fill="#000000" font-family="Verdana" font-size="14" lengthAdjust="spacing" textLength="56" x="414" y="2082.6225">&#32531;&#23384;&#23384;&#20648;</text><ellipse cx="429.33" cy="2111.562" fill="#FFFFFF" rx="10" ry="10" style="stroke:#000000;stroke-width:1.0;"/><g id="&#32531;&#23384;&#23384;&#20648;.&#20869;&#23384;&#32531;&#23384;"><rect fill="#FFFFFF" height="50" rx="12.5" ry="12.5" style="stroke:#000000;stroke-width:1.0;" width="76" x="391.33" y="2158.562"/><line style="stroke:#000000;stroke-width:1.0;" x1="391.33" x2="467.33" y1="2185.5766" y2="2185.5766"/><text fill="#000000" font-family="Verdana" font-size="14" lengthAdjust="spacing" textLength="56" x="401.33" y="2177.6371">&#20869;&#23384;&#32531;&#23384;</text></g><g id="&#32531;&#23384;&#23384;&#20648;.&#30913;&#30424;&#32531;&#23384;"><rect fill="#FFFFFF" height="50" rx="12.5" ry="12.5" style="stroke:#000000;stroke-width:1.0;" width="76" x="355.33" y="2261.562"/><line style="stroke:#000000;stroke-width:1.0;" x1="355.33" x2="431.33" y1="2288.5766" y2="2288.5766"/><text fill="#000000" font-family="Verdana" font-size="14" lengthAdjust="spacing" textLength="56" x="365.33" y="2280.6371">&#30913;&#30424;&#32531;&#23384;</text></g><ellipse cx="435.33" cy="2375.562" fill="none" rx="11" ry="11" style="stroke:#000000;stroke-width:1.0;"/><ellipse cx="435.33" cy="2375.562" fill="#FFFFFF" rx="6" ry="6" style="stroke:#000000;stroke-width:1.0;"/><!--link *start*???? to ????--><g id="link_*start*&#32531;&#23384;&#23384;&#20648;_&#20869;&#23384;&#32531;&#23384;"><path d="M429.33,2122.002 C429.33,2131.262 429.33,2139.752 429.33,2152.242 " fill="none" id="*start*&#32531;&#23384;&#23384;&#20648;-to-&#20869;&#23384;&#32531;&#23384;" style="stroke:#000000;stroke-width:1.0;"/><polygon fill="#000000" points="429.33,2158.242,433.33,2149.242,429.33,2153.242,425.33,2149.242,429.33,2158.242" style="stroke:#000000;stroke-width:1.0;"/></g><!--link ???? to ????--><g id="link_&#20869;&#23384;&#32531;&#23384;_&#30913;&#30424;&#32531;&#23384;"><path d="M395.69,2208.832 C390.66,2214.072 386.21,2220.032 383.33,2226.562 C378.55,2237.402 378.3819,2244.5071 381.4719,2255.4671 " fill="none" id="&#20869;&#23384;&#32531;&#23384;-to-&#30913;&#30424;&#32531;&#23384;" style="stroke:#000000;stroke-width:1.0;"/><polygon fill="#000000" points="383.1,2261.242,384.5077,2251.4942,381.7432,2256.4296,376.8079,2253.6651,383.1,2261.242" style="stroke:#000000;stroke-width:1.0;"/><text fill="#000000" font-family="Verdana" font-size="13" lengthAdjust="spacing" textLength="78" x="384.33" y="2240.6318">&#20869;&#23384;&#32531;&#23384;&#24050;&#28385;</text></g><!--link ???? to *end*????--><g id="link_&#20869;&#23384;&#32531;&#23384;_*end*&#32531;&#23384;&#23384;&#20648;"><path d="M453.62,2209.052 C457.6,2214.422 461.14,2220.372 463.33,2226.562 C481.13,2276.842 483.74,2297.292 463.33,2346.562 C459.49,2355.832 455.7191,2360.0408 449.0691,2365.0308 " fill="none" id="&#20869;&#23384;&#32531;&#23384;-to-*end*&#32531;&#23384;&#23384;&#20648;" style="stroke:#000000;stroke-width:1.0;"/><polygon fill="#000000" points="444.27,2368.632,453.8695,2366.4296,448.2693,2365.631,449.0679,2360.0308,444.27,2368.632" style="stroke:#000000;stroke-width:1.0;"/><text fill="#000000" font-family="Verdana" font-size="13" lengthAdjust="spacing" textLength="52" x="478.67" y="2292.1318">&#23384;&#20648;&#23436;&#25104;</text></g><!--link ???? to *end*????--><g id="link_&#30913;&#30424;&#32531;&#23384;_*end*&#32531;&#23384;&#23384;&#20648;"><path d="M397.16,2311.832 C399.58,2322.902 403.41,2335.892 409.33,2346.562 C413.96,2354.912 417.1544,2358.7135 422.9644,2363.9535 " fill="none" id="&#30913;&#30424;&#32531;&#23384;-to-*end*&#32531;&#23384;&#23384;&#20648;" style="stroke:#000000;stroke-width:1.0;"/><polygon fill="#000000" points="427.42,2367.972,423.4156,2358.9739,423.707,2364.6232,418.0577,2364.9147,427.42,2367.972" style="stroke:#000000;stroke-width:1.0;"/><text fill="#000000" font-family="Verdana" font-size="13" lengthAdjust="spacing" textLength="52" x="410.33" y="2343.6318">&#23384;&#20648;&#23436;&#25104;</text></g><path d="M412,2633.5673 L512,2633.5673 A12.5,12.5 0 0 1 524.5,2646.0673 L524.5,2660.582 L399.5,2660.582 L399.5,2646.0673 A12.5,12.5 0 0 1 412,2633.5673 " fill="#FFFFFF" style="stroke:#FFFFFF;stroke-width:1.0;"/><path d="M399.5,2660.582 L524.5,2660.582 L524.5,3005.082 A12.5,12.5 0 0 1 512,3017.582 L412,3017.582 A12.5,12.5 0 0 1 399.5,3005.082 L399.5,2660.582 " fill="#FFFFFF" style="stroke:#FFFFFF;stroke-width:1.0;"/><rect fill="none" height="384.0146" rx="12.5" ry="12.5" style="stroke:#000000;stroke-width:1.0;" width="125" x="399.5" y="2633.5673"/><line style="stroke:#000000;stroke-width:1.0;" x1="399.5" x2="524.5" y1="2660.582" y2="2660.582"/><text fill="#000000" font-family="Verdana" font-size="14" lengthAdjust="spacing" textLength="56" x="434" y="2652.6425">&#25351;&#26631;&#26356;&#26032;</text><ellipse cx="463.5" cy="2681.582" fill="#FFFFFF" rx="10" ry="10" style="stroke:#000000;stroke-width:1.0;"/><g id="&#25351;&#26631;&#26356;&#26032;.&#35760;&#24405;&#28210;&#26579;&#26102;&#38388;"><rect fill="#FFFFFF" height="50" rx="12.5" ry="12.5" style="stroke:#000000;stroke-width:1.0;" width="104" x="411.5" y="2727.582"/><line style="stroke:#000000;stroke-width:1.0;" x1="411.5" x2="515.5" y1="2754.5966" y2="2754.5966"/><text fill="#000000" font-family="Verdana" font-size="14" lengthAdjust="spacing" textLength="84" x="421.5" y="2746.6571">&#35760;&#24405;&#28210;&#26579;&#26102;&#38388;</text></g><g id="&#25351;&#26631;&#26356;&#26032;.&#26356;&#26032;&#26684;&#24335;&#32479;&#35745;"><rect fill="#FFFFFF" height="50" rx="12.5" ry="12.5" style="stroke:#000000;stroke-width:1.0;" width="104" x="411.5" y="2813.582"/><line style="stroke:#000000;stroke-width:1.0;" x1="411.5" x2="515.5" y1="2840.5966" y2="2840.5966"/><text fill="#000000" font-family="Verdana" font-size="14" lengthAdjust="spacing" textLength="84" x="421.5" y="2832.6571">&#26356;&#26032;&#26684;&#24335;&#32479;&#35745;</text></g><g id="&#25351;&#26631;&#26356;&#26032;.&#26356;&#26032;&#32531;&#23384;&#32479;&#35745;"><rect fill="#FFFFFF" height="50" rx="12.5" ry="12.5" style="stroke:#000000;stroke-width:1.0;" width="104" x="411.5" y="2899.582"/><line style="stroke:#000000;stroke-width:1.0;" x1="411.5" x2="515.5" y1="2926.5966" y2="2926.5966"/><text fill="#000000" font-family="Verdana" font-size="14" lengthAdjust="spacing" textLength="84" x="421.5" y="2918.6571">&#26356;&#26032;&#32531;&#23384;&#32479;&#35745;</text></g><ellipse cx="463.5" cy="2996.582" fill="none" rx="11" ry="11" style="stroke:#000000;stroke-width:1.0;"/><ellipse cx="463.5" cy="2996.582" fill="#FFFFFF" rx="6" ry="6" style="stroke:#000000;stroke-width:1.0;"/><!--link *start*???? to ??????--><g id="link_*start*&#25351;&#26631;&#26356;&#26032;_&#35760;&#24405;&#28210;&#26579;&#26102;&#38388;"><path d="M463.5,2691.892 C463.5,2700.932 463.5,2709.072 463.5,2721.312 " fill="none" id="*start*&#25351;&#26631;&#26356;&#26032;-to-&#35760;&#24405;&#28210;&#26579;&#26102;&#38388;" style="stroke:#000000;stroke-width:1.0;"/><polygon fill="#000000" points="463.5,2727.312,467.5,2718.312,463.5,2722.312,459.5,2718.312,463.5,2727.312" style="stroke:#000000;stroke-width:1.0;"/></g><!--link ?????? to ??????--><g id="link_&#35760;&#24405;&#28210;&#26579;&#26102;&#38388;_&#26356;&#26032;&#26684;&#24335;&#32479;&#35745;"><path d="M463.5,2777.882 C463.5,2789.022 463.5,2796.202 463.5,2807.342 " fill="none" id="&#35760;&#24405;&#28210;&#26579;&#26102;&#38388;-to-&#26356;&#26032;&#26684;&#24335;&#32479;&#35745;" style="stroke:#000000;stroke-width:1.0;"/><polygon fill="#000000" points="463.5,2813.342,467.5,2804.342,463.5,2808.342,459.5,2804.342,463.5,2813.342" style="stroke:#000000;stroke-width:1.0;"/></g><!--link ?????? to ??????--><g id="link_&#26356;&#26032;&#26684;&#24335;&#32479;&#35745;_&#26356;&#26032;&#32531;&#23384;&#32479;&#35745;"><path d="M463.5,2863.882 C463.5,2875.022 463.5,2882.202 463.5,2893.342 " fill="none" id="&#26356;&#26032;&#26684;&#24335;&#32479;&#35745;-to-&#26356;&#26032;&#32531;&#23384;&#32479;&#35745;" style="stroke:#000000;stroke-width:1.0;"/><polygon fill="#000000" points="463.5,2899.342,467.5,2890.342,463.5,2894.342,459.5,2890.342,463.5,2899.342" style="stroke:#000000;stroke-width:1.0;"/></g><!--link ?????? to *end*????--><g id="link_&#26356;&#26032;&#32531;&#23384;&#32479;&#35745;_*end*&#25351;&#26631;&#26356;&#26032;"><path d="M463.5,2950.062 C463.5,2962.052 463.5,2969.852 463.5,2979.082 " fill="none" id="&#26356;&#26032;&#32531;&#23384;&#32479;&#35745;-to-*end*&#25351;&#26631;&#26356;&#26032;" style="stroke:#000000;stroke-width:1.0;"/><polygon fill="#000000" points="463.5,2985.082,467.5,2976.082,463.5,2980.082,459.5,2976.082,463.5,2985.082" style="stroke:#000000;stroke-width:1.0;"/></g><g id="elem_GMN77"><path d="M176.5,155.7373 L176.5,219.9373 L141.49,223.9373 L176.5,227.9373 L176.5,292.1318 A0,0 0 0 0 176.5,292.1318 L363.5,292.1318 A0,0 0 0 0 363.5,292.1318 L363.5,165.7373 L353.5,155.7373 L176.5,155.7373 A0,0 0 0 0 176.5,155.7373 " fill="#FFFFFF" style="stroke:#000000;stroke-width:1.0;"/><path d="M353.5,155.7373 L353.5,165.7373 L363.5,165.7373 L353.5,155.7373 " fill="#FFFFFF" style="stroke:#000000;stroke-width:1.0;"/><text fill="#000000" font-family="Verdana" font-size="13" lengthAdjust="spacing" textLength="104" x="182.5" y="173.8071">&#25903;&#25345;&#30340;&#24037;&#20855;&#31867;&#22411;&#65306;</text><text fill="#000000" font-family="Verdana" font-size="13" lengthAdjust="spacing" textLength="88" x="182.5" y="189.6064">- render_uml</text><text fill="#000000" font-family="Verdana" font-size="13" lengthAdjust="spacing" textLength="138" x="182.5" y="205.4058">- render_uml_to_file</text><text fill="#000000" font-family="Verdana" font-size="13" lengthAdjust="spacing" textLength="149" x="182.5" y="221.2051">- validate_uml_syntax</text><text fill="#000000" font-family="Verdana" font-size="13" lengthAdjust="spacing" textLength="157" x="182.5" y="237.0044">- generate_preview_url</text><text fill="#000000" font-family="Verdana" font-size="13" lengthAdjust="spacing" textLength="90" x="182.5" y="252.8037">- get_metrics</text><text fill="#000000" font-family="Verdana" font-size="13" lengthAdjust="spacing" textLength="166" x="182.5" y="268.603">- get_supported_formats</text><text fill="#000000" font-family="Verdana" font-size="13" lengthAdjust="spacing" textLength="121" x="182.5" y="284.4023">- get_service_info</text></g><g id="elem_GMN80"><path d="M238,496.1373 L238,520.8373 L203.34,524.8373 L238,528.8373 L238,553.5353 A0,0 0 0 0 238,553.5353 L394,553.5353 A0,0 0 0 0 394,553.5353 L394,506.1373 L384,496.1373 L238,496.1373 A0,0 0 0 0 238,496.1373 " fill="#FFFFFF" style="stroke:#000000;stroke-width:1.0;"/><path d="M384,496.1373 L384,506.1373 L394,506.1373 L384,496.1373 " fill="#FFFFFF" style="stroke:#000000;stroke-width:1.0;"/><text fill="#000000" font-family="Verdana" font-size="13" lengthAdjust="spacing" textLength="91" x="244" y="514.2071">&#21452;&#23618;&#32531;&#23384;&#31574;&#30053;&#65306;</text><text fill="#000000" font-family="Verdana" font-size="13" lengthAdjust="spacing" textLength="122" x="244" y="530.0064">1. &#20869;&#23384;&#32531;&#23384;&#65288;LRU&#65289;</text><text fill="#000000" font-family="Verdana" font-size="13" lengthAdjust="spacing" textLength="135" x="244" y="545.8058">2. &#30913;&#30424;&#32531;&#23384;&#65288;&#25345;&#20037;&#21270;&#65289;</text></g><g id="elem_GMN83"><path d="M694,1359.8373 L694,1384.5373 L659.3,1388.5373 L694,1392.5373 L694,1417.2353 A0,0 0 0 0 694,1417.2353 L806,1417.2353 A0,0 0 0 0 806,1417.2353 L806,1369.8373 L796,1359.8373 L694,1359.8373 A0,0 0 0 0 694,1359.8373 " fill="#FFFFFF" style="stroke:#000000;stroke-width:1.0;"/><path d="M796,1359.8373 L796,1369.8373 L806,1369.8373 L796,1359.8373 " fill="#FFFFFF" style="stroke:#000000;stroke-width:1.0;"/><text fill="#000000" font-family="Verdana" font-size="13" lengthAdjust="spacing" textLength="65" x="700" y="1377.9071">&#25903;&#25345;&#26684;&#24335;&#65306;</text><text fill="#000000" font-family="Verdana" font-size="13" lengthAdjust="spacing" textLength="91" x="700" y="1393.7064">- PNG&#65288;&#40664;&#35748;&#65289;</text><text fill="#000000" font-family="Verdana" font-size="13" lengthAdjust="spacing" textLength="91" x="700" y="1409.5058">- SVG&#65288;&#30690;&#37327;&#65289;</text></g><!--link *start* to ????--><g id="link_*start*_&#25509;&#25910;&#35831;&#27714;"><path d="M103,78.8673 C103,102.0573 103,157.8573 103,192.5173 " fill="none" id="*start*-to-&#25509;&#25910;&#35831;&#27714;" style="stroke:#000000;stroke-width:1.0;"/><polygon fill="#000000" points="103,198.5173,107,189.5173,103,193.5173,99,189.5173,103,198.5173" style="stroke:#000000;stroke-width:1.0;"/><text fill="#000000" font-family="Verdana" font-size="13" lengthAdjust="spacing" textLength="119" x="104" y="122.8071">&#23458;&#25143;&#31471;&#21457;&#36865;MCP&#35831;&#27714;</text></g><!--link ???? to ????--><g id="link_&#25509;&#25910;&#35831;&#27714;_&#21442;&#25968;&#39564;&#35777;"><path d="M103,249.3973 C103,281.2873 103,330.7473 103,362.6473 " fill="none" id="&#25509;&#25910;&#35831;&#27714;-to-&#21442;&#25968;&#39564;&#35777;" style="stroke:#000000;stroke-width:1.0;"/><polygon fill="#000000" points="103,368.6473,107,359.6473,103,363.6473,99,359.6473,103,368.6473" style="stroke:#000000;stroke-width:1.0;"/><text fill="#000000" font-family="Verdana" font-size="13" lengthAdjust="spacing" textLength="78" x="104" y="336.2071">&#35299;&#26512;&#35831;&#27714;&#21442;&#25968;</text></g><!--link ???? to ????--><g id="link_&#21442;&#25968;&#39564;&#35777;_&#21442;&#25968;&#38169;&#35823;"><path d="M83.86,419.4073 C77.81,428.2873 71.73,438.7273 68,449.1373 C51.75,494.4673 49.2649,545.3573 49.3449,577.1473 " fill="none" id="&#21442;&#25968;&#39564;&#35777;-to-&#21442;&#25968;&#38169;&#35823;" style="stroke:#000000;stroke-width:1.0;"/><polygon fill="#000000" points="49.36,583.1473,53.3373,574.1373,49.3474,578.1473,45.3374,574.1574,49.36,583.1473" style="stroke:#000000;stroke-width:1.0;"/><text fill="#000000" font-family="Verdana" font-size="13" lengthAdjust="spacing" textLength="52" x="69" y="463.2071">&#39564;&#35777;&#22833;&#36133;</text></g><!--link ???? to ????--><g id="link_&#21442;&#25968;&#39564;&#35777;_&#32531;&#23384;&#26816;&#26597;"><path d="M114.66,419.3473 C125.75,442.3573 139.7151,471.3622 150.7851,494.3322 " fill="none" id="&#21442;&#25968;&#39564;&#35777;-to-&#32531;&#23384;&#26816;&#26597;" style="stroke:#000000;stroke-width:1.0;"/><polygon fill="#000000" points="153.39,499.7373,153.0861,489.8931,151.2193,495.2331,145.8793,493.3663,153.39,499.7373" style="stroke:#000000;stroke-width:1.0;"/><text fill="#000000" font-family="Verdana" font-size="13" lengthAdjust="spacing" textLength="52" x="136.86" y="463.2071">&#39564;&#35777;&#36890;&#36807;</text></g><!--link ???? to *end*--><g id="link_&#21442;&#25968;&#38169;&#35823;_*end*"><path d="M44.45,634.0173 C37.93,664.9473 28,719.8973 28,767.5373 C28,767.5373 28,767.5373 28,2826.5673 C28,2923.8773 56.64,2959.8873 135,3017.5773 C201.8,3066.7573 468.8619,3096.7295 527.7919,3102.8295 " fill="none" id="&#21442;&#25968;&#38169;&#35823;-to-*end*" style="stroke:#000000;stroke-width:1.0;"/><polygon fill="#000000" points="533.76,3103.4473,525.2197,3098.5419,528.7866,3102.9325,524.396,3106.4994,533.76,3103.4473" style="stroke:#000000;stroke-width:1.0;"/><text fill="#000000" font-family="Verdana" font-size="13" lengthAdjust="spacing" textLength="78" x="29" y="1807.1171">&#36820;&#22238;&#38169;&#35823;&#21709;&#24212;</text></g><!--link ???? to ????--><g id="link_&#32531;&#23384;&#26816;&#26597;_&#32531;&#23384;&#21629;&#20013;"><path d="M203.29,547.9373 C216.65,557.3573 230.62,569.4473 240,583.5373 C273.45,633.7473 283.5714,699.9015 286.9314,737.1815 " fill="none" id="&#32531;&#23384;&#26816;&#26597;-to-&#32531;&#23384;&#21629;&#20013;" style="stroke:#000000;stroke-width:1.0;"/><polygon fill="#000000" points="287.47,743.1573,290.646,733.8346,287.0212,738.1775,282.6783,734.5527,287.47,743.1573" style="stroke:#000000;stroke-width:1.0;"/><text fill="#000000" font-family="Verdana" font-size="13" lengthAdjust="spacing" textLength="52" x="265.41" y="614.1071">&#25214;&#21040;&#32531;&#23384;</text></g><!--link ???? to ????--><g id="link_&#32531;&#23384;&#26816;&#26597;_&#20934;&#22791;&#28210;&#26579;"><path d="M165,550.0473 C165,580.5273 165,626.5973 165,657.1573 " fill="none" id="&#32531;&#23384;&#26816;&#26597;-to-&#20934;&#22791;&#28210;&#26579;" style="stroke:#000000;stroke-width:1.0;"/><polygon fill="#000000" points="165,663.1573,169,654.1573,165,658.1573,161,654.1573,165,663.1573" style="stroke:#000000;stroke-width:1.0;"/><text fill="#000000" font-family="Verdana" font-size="13" lengthAdjust="spacing" textLength="65" x="166" y="614.1071">&#32531;&#23384;&#26410;&#21629;&#20013;</text></g><!--link ???? to ????--><g id="link_&#32531;&#23384;&#21629;&#20013;_&#36820;&#22238;&#32467;&#26524;"><path d="M289.28,793.8173 C289.57,822.0073 290,869.8873 290,911.0373 C290,911.0373 290,911.0373 290,2231.0573 C290,2306.3373 292.32,2329.2373 326,2396.5673 C347.89,2440.3173 382.9449,2477.3228 409.6949,2502.1828 " fill="none" id="&#32531;&#23384;&#21629;&#20013;-to-&#36820;&#22238;&#32467;&#26524;" style="stroke:#000000;stroke-width:1.0;"/><polygon fill="#000000" points="414.09,2506.2673,410.2204,2497.2105,410.4274,2502.8635,404.7744,2503.0705,414.09,2506.2673" style="stroke:#000000;stroke-width:1.0;"/><text fill="#000000" font-family="Verdana" font-size="13" lengthAdjust="spacing" textLength="104" x="291" y="1727.1171">&#30452;&#25509;&#36820;&#22238;&#32531;&#23384;&#32467;&#26524;</text></g><!--link ???? to ????--><g id="link_&#20934;&#22791;&#28210;&#26579;_&#24182;&#21457;&#26816;&#26597;"><path d="M158.42,713.8073 C156.23,723.0373 154.08,733.6973 153,743.5373 C150.58,765.6273 150.58,771.4473 153,793.5373 C154.08,803.3673 154.8448,808.1894 157.0348,817.4194 " fill="none" id="&#20934;&#22791;&#28210;&#26579;-to-&#24182;&#21457;&#26816;&#26597;" style="stroke:#000000;stroke-width:1.0;"/><polygon fill="#000000" points="158.42,823.2573,160.2342,813.577,157.2657,818.3924,152.4503,815.4239,158.42,823.2573" style="stroke:#000000;stroke-width:1.0;"/><text fill="#000000" font-family="Verdana" font-size="13" lengthAdjust="spacing" textLength="78" x="154" y="774.1071">&#26816;&#26597;&#24182;&#21457;&#38480;&#21046;</text></g><!--link ???? to ????--><g id="link_&#24182;&#21457;&#26816;&#26597;_&#24182;&#21457;&#36229;&#38480;"><path d="M164.53,873.8573 C163.76,913.3073 162.3571,984.8084 161.5871,1024.2484 " fill="none" id="&#24182;&#21457;&#26816;&#26597;-to-&#24182;&#21457;&#36229;&#38480;" style="stroke:#000000;stroke-width:1.0;"/><polygon fill="#000000" points="161.47,1030.2473,165.6449,1021.3271,161.5676,1025.2483,157.6464,1021.1709,161.47,1030.2473" style="stroke:#000000;stroke-width:1.0;"/><text fill="#000000" font-family="Verdana" font-size="13" lengthAdjust="spacing" textLength="91" x="164.91" y="917.6071">&#36229;&#36807;&#26368;&#22823;&#24182;&#21457;&#25968;</text></g><!--link ???? to ????--><g id="link_&#24182;&#21457;&#26816;&#26597;_&#35821;&#27861;&#39564;&#35777;"><path d="M203.48,861.1773 C282.28,885.0273 455.4372,937.4394 534.0172,961.2194 " fill="none" id="&#24182;&#21457;&#26816;&#26597;-to-&#35821;&#27861;&#39564;&#35777;" style="stroke:#000000;stroke-width:1.0;"/><polygon fill="#000000" points="539.76,962.9573,532.3044,956.5219,534.9743,961.5091,529.9872,964.179,539.76,962.9573" style="stroke:#000000;stroke-width:1.0;"/><text fill="#000000" font-family="Verdana" font-size="13" lengthAdjust="spacing" textLength="78" x="397.23" y="917.6071">&#24182;&#21457;&#26816;&#26597;&#36890;&#36807;</text></g><!--link ???? to *end*--><g id="link_&#24182;&#21457;&#36229;&#38480;_*end*"><path d="M161,1080.9573 C161,1167.9173 161,1470.6773 161,1720.5473 C161,1720.5473 161,1720.5473 161,2826.5673 C161,3016.2773 466.4329,3088.5391 528.4529,3101.2891 " fill="none" id="&#24182;&#21457;&#36229;&#38480;-to-*end*" style="stroke:#000000;stroke-width:1.0;"/><polygon fill="#000000" points="534.33,3102.4973,526.3198,3096.7669,529.4324,3101.4905,524.7089,3104.6031,534.33,3102.4973" style="stroke:#000000;stroke-width:1.0;"/><text fill="#000000" font-family="Verdana" font-size="13" lengthAdjust="spacing" textLength="104" x="162" y="2014.1171">&#36820;&#22238;&#24182;&#21457;&#38480;&#21046;&#38169;&#35823;</text></g><!--link ???? to ????--><g id="link_&#35821;&#27861;&#39564;&#35777;_&#35821;&#27861;&#38169;&#35823;"><path d="M616.37,985.0273 C672.85,999.7773 776.76,1035.9673 824,1110.5373 C947.33,1305.2173 887.9556,1602.9567 866.7256,1690.3967 " fill="none" id="&#35821;&#27861;&#39564;&#35777;-to-&#35821;&#27861;&#38169;&#35823;" style="stroke:#000000;stroke-width:1.0;"/><polygon fill="#000000" points="865.31,1696.2273,871.3205,1688.4252,866.4897,1691.3685,863.5464,1686.5376,865.31,1696.2273" style="stroke:#000000;stroke-width:1.0;"/><text fill="#000000" font-family="Verdana" font-size="13" lengthAdjust="spacing" textLength="80" x="798.18" y="1061.1071">UML&#35821;&#27861;&#26080;&#25928;</text></g><!--link ???? to ????--><g id="link_&#35821;&#27861;&#39564;&#35777;_&#25191;&#34892;&#28210;&#26579;"><path d="M578,1001.0173 C578,1025.2073 578,1059.0673 578,1104.2273 " fill="none" id="&#35821;&#27861;&#39564;&#35777;-to-&#25191;&#34892;&#28210;&#26579;" style="stroke:#000000;stroke-width:1.0;"/><polygon fill="#000000" points="578,1110.2273,582,1101.2273,578,1105.2273,574,1101.2273,578,1110.2273" style="stroke:#000000;stroke-width:1.0;"/><text fill="#000000" font-family="Verdana" font-size="13" lengthAdjust="spacing" textLength="78" x="579" y="1061.1071">&#35821;&#27861;&#39564;&#35777;&#36890;&#36807;</text></g><!--link ???? to *end*--><g id="link_&#35821;&#27861;&#38169;&#35823;_*end*"><path d="M859,1746.8373 C859,1775.0173 859,1822.8973 859,1864.0473 C859,1864.0473 859,1864.0473 859,2826.5673 C859,2926.1273 816.94,2952.0473 742,3017.5773 C682.61,3069.5073 593.1355,3093.5844 561.4655,3100.9144 " fill="none" id="&#35821;&#27861;&#38169;&#35823;-to-*end*" style="stroke:#000000;stroke-width:1.0;"/><polygon fill="#000000" points="555.62,3102.2673,565.2902,3104.1349,560.4912,3101.1399,563.4863,3096.3409,555.62,3102.2673" style="stroke:#000000;stroke-width:1.0;"/><text fill="#000000" font-family="Verdana" font-size="13" lengthAdjust="spacing" textLength="78" x="860" y="2235.6271">&#36820;&#22238;&#35821;&#27861;&#38169;&#35823;</text></g><!--link ???? to ???--><g id="link_&#25191;&#34892;&#28210;&#26579;_&#28210;&#26579;&#20013;"><path d="M583.4,1666.8173 C584.28,1712.1773 584.9433,1746.1984 585.4133,1770.3684 " fill="none" id="&#25191;&#34892;&#28210;&#26579;-to-&#28210;&#26579;&#20013;" style="stroke:#000000;stroke-width:1.0;"/><polygon fill="#000000" points="585.53,1776.3673,589.3543,1767.2912,585.4328,1771.3682,581.3558,1767.4468,585.53,1776.3673" style="stroke:#000000;stroke-width:1.0;"/><text fill="#000000" font-family="Verdana" font-size="13" lengthAdjust="spacing" textLength="87" x="585.84" y="1727.1171">&#35843;&#29992;PlantUML</text></g><!--link ??? to ????--><g id="link_&#28210;&#26579;&#20013;_&#28210;&#26579;&#36229;&#26102;"><path d="M617.4,1819.7373 C646.15,1837.1073 687.68,1866.6373 711,1903.5473 C726.38,1927.8773 731.6881,1954.9086 733.9681,1977.1486 " fill="none" id="&#28210;&#26579;&#20013;-to-&#28210;&#26579;&#36229;&#26102;" style="stroke:#000000;stroke-width:1.0;"/><polygon fill="#000000" points="734.58,1983.1173,737.6413,1973.7563,734.0701,1978.1434,729.683,1974.5722,734.58,1983.1173" style="stroke:#000000;stroke-width:1.0;"/><text fill="#000000" font-family="Verdana" font-size="13" lengthAdjust="spacing" textLength="78" x="686.57" y="1870.6171">&#36229;&#36807;&#36229;&#26102;&#26102;&#38388;</text></g><!--link ??? to ????--><g id="link_&#28210;&#26579;&#20013;_&#28210;&#26579;&#22833;&#36133;"><path d="M585.96,1826.7673 C585.81,1928.8973 585.2094,2317.8573 585.0494,2420.2173 " fill="none" id="&#28210;&#26579;&#20013;-to-&#28210;&#26579;&#22833;&#36133;" style="stroke:#000000;stroke-width:1.0;"/><polygon fill="#000000" points="585.04,2426.2173,589.0541,2417.2236,585.0478,2421.2173,581.0541,2417.2111,585.04,2426.2173" style="stroke:#000000;stroke-width:1.0;"/><text fill="#000000" font-family="Verdana" font-size="13" lengthAdjust="spacing" textLength="113" x="586.84" y="1934.1171">PlantUML&#25191;&#34892;&#22833;&#36133;</text></g><!--link ??? to ????--><g id="link_&#28210;&#26579;&#20013;_&#28210;&#26579;&#25104;&#21151;"><path d="M554.62,1805.0773 C521.81,1809.5673 471.71,1822.0273 447,1856.5473 C437.45,1869.8873 436.291,1882.5805 438.081,1897.4105 " fill="none" id="&#28210;&#26579;&#20013;-to-&#28210;&#26579;&#25104;&#21151;" style="stroke:#000000;stroke-width:1.0;"/><polygon fill="#000000" points="438.8,1903.3673,441.6927,1893.9528,438.2008,1898.4033,433.7503,1894.9115,438.8,1903.3673" style="stroke:#000000;stroke-width:1.0;"/><text fill="#000000" font-family="Verdana" font-size="13" lengthAdjust="spacing" textLength="113" x="448" y="1870.6171">PlantUML&#25191;&#34892;&#25104;&#21151;</text></g><!--link ???? to *end*--><g id="link_&#28210;&#26579;&#36229;&#26102;_*end*"><path d="M734.12,2033.9173 C729.14,2100.5673 716,2291.5273 716,2450.5673 C716,2450.5673 716,2450.5673 716,2826.5673 C716,2952.3673 591.9986,3065.1814 557.8386,3093.9614 " fill="none" id="&#28210;&#26579;&#36229;&#26102;-to-*end*" style="stroke:#000000;stroke-width:1.0;"/><polygon fill="#000000" points="553.25,3097.8273,562.7101,3095.0875,557.0738,3094.6057,557.5556,3088.9694,553.25,3097.8273" style="stroke:#000000;stroke-width:1.0;"/><text fill="#000000" font-family="Verdana" font-size="13" lengthAdjust="spacing" textLength="78" x="717" y="2537.1371">&#36820;&#22238;&#36229;&#26102;&#38169;&#35823;</text></g><!--link ???? to *end*--><g id="link_&#28210;&#26579;&#22833;&#36133;_*end*"><path d="M586.27,2477.0273 C590.08,2560.1773 598.8,2839.3073 558,3064.5773 C556.07,3075.2073 554.182,3081.3165 551.112,3089.3065 " fill="none" id="&#28210;&#26579;&#22833;&#36133;-to-*end*" style="stroke:#000000;stroke-width:1.0;"/><polygon fill="#000000" points="548.96,3094.9073,555.9219,3087.9408,550.7533,3090.24,548.4541,3085.0714,548.96,3094.9073" style="stroke:#000000;stroke-width:1.0;"/><text fill="#000000" font-family="Verdana" font-size="13" lengthAdjust="spacing" textLength="78" x="590.59" y="2600.6371">&#36820;&#22238;&#28210;&#26579;&#38169;&#35823;</text></g><!--link ???? to ????--><g id="link_&#28210;&#26579;&#25104;&#21151;_&#32531;&#23384;&#23384;&#20648;"><path d="M443.84,1953.8073 C443.67,1978.7973 443.4404,2014.1074 443.1504,2057.2074 " fill="none" id="&#28210;&#26579;&#25104;&#21151;-to-&#32531;&#23384;&#23384;&#20648;" style="stroke:#000000;stroke-width:1.0;"/><polygon fill="#000000" points="443.11,2063.2073,447.1705,2054.2344,443.1436,2058.2074,439.1706,2054.1806,443.11,2063.2073" style="stroke:#000000;stroke-width:1.0;"/><text fill="#000000" font-family="Verdana" font-size="13" lengthAdjust="spacing" textLength="117" x="444.62" y="2014.1171">&#23384;&#20648;&#28210;&#26579;&#32467;&#26524;&#21040;&#32531;&#23384;</text></g><!--link ???? to ????--><g id="link_&#32531;&#23384;&#23384;&#20648;_&#36820;&#22238;&#32467;&#26524;"><path d="M442,2397.0173 C442,2440.2073 442,2475.5773 442,2500.5273 " fill="none" id="&#32531;&#23384;&#23384;&#20648;-to-&#36820;&#22238;&#32467;&#26524;" style="stroke:#000000;stroke-width:1.0;"/><polygon fill="#000000" points="442,2506.5273,446,2497.5273,442,2501.5273,438,2497.5273,442,2506.5273" style="stroke:#000000;stroke-width:1.0;"/><text fill="#000000" font-family="Verdana" font-size="13" lengthAdjust="spacing" textLength="78" x="443" y="2457.1371">&#32531;&#23384;&#23384;&#20648;&#23436;&#25104;</text></g><!--link ???? to ????--><g id="link_&#36820;&#22238;&#32467;&#26524;_&#25351;&#26631;&#26356;&#26032;"><path d="M443.67,2556.9573 C444.94,2575.5273 446.4202,2597.0313 448.5002,2627.4113 " fill="none" id="&#36820;&#22238;&#32467;&#26524;-to-&#25351;&#26631;&#26356;&#26032;" style="stroke:#000000;stroke-width:1.0;"/><polygon fill="#000000" points="448.91,2633.3973,452.2859,2624.1451,448.5685,2628.409,444.3046,2624.6915,448.91,2633.3973" style="stroke:#000000;stroke-width:1.0;"/><text fill="#000000" font-family="Verdana" font-size="13" lengthAdjust="spacing" textLength="78" x="447.83" y="2600.6371">&#26356;&#26032;&#24615;&#33021;&#25351;&#26631;</text></g><!--link ???? to *end*--><g id="link_&#25351;&#26631;&#26356;&#26032;_*end*"><path d="M454.37,3017.9973 C458.78,3034.4373 465.13,3050.2373 474,3064.5773 C487.62,3086.5973 512.2649,3095.986 528.5149,3100.456 " fill="none" id="&#25351;&#26631;&#26356;&#26032;-to-*end*" style="stroke:#000000;stroke-width:1.0;"/><polygon fill="#000000" points="534.3,3102.0473,526.6832,3095.8035,529.4791,3100.7212,524.5614,3103.517,534.3,3102.0473" style="stroke:#000000;stroke-width:1.0;"/><text fill="#000000" font-family="Verdana" font-size="13" lengthAdjust="spacing" textLength="78" x="475" y="3061.6471">&#23436;&#25104;&#35831;&#27714;&#22788;&#29702;</text></g><!--SRC=[TLPBJnDH6DtVNt7TcjH4boxSk723XcXqOqpJo22Jz4660JN6f0LA2nQBwGEXXF9eWr5fYv8McG9_flVETCLVyBlppGptTahInSmvvplplUvCxvWpMaAZi_6OdYIcRiOr-lBf17twU9Boip-yNk8xwsnjdqQeq-xnaqLxhSlJ6UVYDry_OBLBGbxVVKCZaKUKVstoSXT5z25bhGEUxzc_sgpuRPZEW1zIX2X24ScAYxpI6VuiEEqCH3f7Xtnt0tca254aKanvosct8GOPrZXnJfjXiTqliUFl_33Dwyr0F4nlErUvm1gTX5eK15bSbLbj5s5MMcVdPK8KdnjZzkrYS7OCCNprakKx28R5BBV26ZbiAeWzVkSdXllkdfa8m1HigyHtTqH0xHHQvu6k5YaeGNPs7_Ml2sqF2iOB18TR6opVXHXPSXFZTBEW4FLtiz0UlfDcZIDF2uC8HJdjO_wt4inEveC6oyQZ3PQJmcOJedXA3_673Vk92D_SuvLyMCzNZvpzGj1fcVUJKYn7av99s5VPpRLtBt7aJcV9Bl-OZCUI9gG5ue2xKKBfVBCRz1HluJVSF1shnpK6lM-B6NZRFIw2vpVOMZqKWR2Vb9T6g5WNzefL4XXL8XcqHNwoT1ZWj_X3h89xWIfSrD6puKd7hRh4ivQe0oOcIzpI2pc-b-DmAgeTiUJk1KyVEKiNI155SLCDEdelcCQolR52o9mPCpLrSJuHIlsN6ylNc7K-E3iLawlc1bONo328sfKjbct240RMeRsN4K8LaNRKdvSuzLO3fEDWxmnOh5XrBaiiTnva40QzfSX2KIFPXa6_9UIpNxyo5wN-bQnut-3qg7ABip_Cs3KVUAZmhFU7M_lZWhnfo5EcgjCjgY1VPS1olawhmougtehYIQDZGEmMBivUd_MBjbLtMYBPC2Xf_RUlefL1kRF952HgwEzcJ9gQLhwI8hJSveMClRtCUasMxTad5jlzSjtV1Yf23IqvfHdH-KHyv3PgfgBJUbnpuOLON9-2PhZ4tCUa6VlWuk-qf6O8VDRG5dJjVNJUY7k46Krefg6_dGlkv-PdPrE6gKr5frD68cPAZ6Oiw6-rg9wSJX78W8fwHgkIltLYqiK2WtyAs93ZgbrfOadtxobBSDtFJpn_UTrV1Uh1FMNoG45V1l-oh50LWjiUB1_Oe9quDR-Bay-UWDlG-kwq6lYi27tnIc1s_M2OAohs_m40]--></g></svg>