<?xml version="1.0" encoding="us-ascii" standalone="no"?><svg xmlns="http://www.w3.org/2000/svg" xmlns:xlink="http://www.w3.org/1999/xlink" contentStyleType="text/css" height="2589px" preserveAspectRatio="none" style="width:424px;height:2589px;background:#FFFFFF;" version="1.1" viewBox="0 0 424 2589" width="424px" zoomAndPan="magnify"><defs/><g><text fill="#000000" font-family="Verdana" font-size="22" font-weight="bold" lengthAdjust="spacing" textLength="391" x="15" y="37.1182">UML MCP &#28210;&#26579;&#26381;&#21153; - &#29983;&#21629;&#21608;&#26399;&#27969;&#31243;&#22270;</text><ellipse cx="203" cy="62.7373" fill="#FFFFFF" rx="10" ry="10" style="stroke:#000000;stroke-width:1.0;"/><rect fill="#FFFFFF" height="34.584" rx="12.5" ry="12.5" style="stroke:#000000;stroke-width:1.0;" width="128" x="139" y="92.7373"/><text fill="#000000" font-family="Verdana" font-size="12" lengthAdjust="spacing" textLength="108" x="149" y="114.8018">&#35835;&#21462;&#29615;&#22659;&#21464;&#37327;&#21644;&#37197;&#32622;</text><rect fill="#FFFFFF" height="34.584" rx="12.5" ry="12.5" style="stroke:#000000;stroke-width:1.0;" width="92" x="157" y="147.3213"/><text fill="#000000" font-family="Verdana" font-size="12" lengthAdjust="spacing" textLength="72" x="167" y="169.3857">&#39564;&#35777;&#37197;&#32622;&#21442;&#25968;</text><rect fill="#FFFFFF" height="34.584" rx="12.5" ry="12.5" style="stroke:#000000;stroke-width:1.0;" width="92" x="157" y="250.5896"/><text fill="#000000" font-family="Verdana" font-size="12" lengthAdjust="spacing" textLength="72" x="167" y="272.6541">&#25243;&#20986;&#37197;&#32622;&#38169;&#35823;</text><ellipse cx="203" cy="324.3816" fill="none" rx="11" ry="11" style="stroke:#000000;stroke-width:1.0;"/><ellipse cx="203" cy="324.3816" fill="#FFFFFF" rx="6" ry="6" style="stroke:#000000;stroke-width:1.0;"/><polygon fill="#FFFFFF" points="178,201.9053,228,201.9053,240,213.9053,228,225.9053,178,225.9053,166,213.9053,178,201.9053" style="stroke:#000000;stroke-width:1.0;"/><text fill="#000000" font-family="Verdana" font-size="11" lengthAdjust="spacing" textLength="11" x="207" y="236.9644">&#21542;</text><text fill="#000000" font-family="Verdana" font-size="11" lengthAdjust="spacing" textLength="50" x="178" y="218.28">&#37197;&#32622;&#26377;&#25928;?</text><text fill="#000000" font-family="Verdana" font-size="11" lengthAdjust="spacing" textLength="11" x="240" y="211.5957">&#26159;</text><rect fill="#FFFFFF" height="34.584" rx="12.5" ry="12.5" style="stroke:#000000;stroke-width:1.0;" width="92" x="157" y="377.3816"/><text fill="#000000" font-family="Verdana" font-size="12" lengthAdjust="spacing" textLength="72" x="167" y="399.446">&#21019;&#24314;&#24517;&#35201;&#30446;&#24405;</text><rect fill="#FFFFFF" height="34.584" rx="12.5" ry="12.5" style="stroke:#000000;stroke-width:1.0;" width="104" x="151" y="431.9656"/><text fill="#000000" font-family="Verdana" font-size="12" lengthAdjust="spacing" textLength="84" x="161" y="454.03">&#21021;&#22987;&#21270;&#26085;&#24535;&#31995;&#32479;</text><rect fill="#FFFFFF" height="34.584" rx="12.5" ry="12.5" style="stroke:#000000;stroke-width:1.0;" width="136" x="135" y="486.5496"/><text fill="#000000" font-family="Verdana" font-size="12" lengthAdjust="spacing" textLength="116" x="145" y="508.614">&#26816;&#26597;PlantUML&#21487;&#29992;&#24615;</text><rect fill="#FFFFFF" height="34.584" rx="12.5" ry="12.5" style="stroke:#000000;stroke-width:1.0;" width="92" x="157" y="589.8179"/><text fill="#000000" font-family="Verdana" font-size="12" lengthAdjust="spacing" textLength="72" x="167" y="611.8823">&#35760;&#24405;&#35686;&#21578;&#26085;&#24535;</text><rect fill="#FFFFFF" height="34.584" rx="12.5" ry="12.5" style="stroke:#000000;stroke-width:1.0;" width="124" x="141" y="644.4019"/><text fill="#000000" font-family="Verdana" font-size="12" lengthAdjust="spacing" textLength="104" x="151" y="666.4663">&#23581;&#35797;&#19979;&#36733;PlantUML</text><rect fill="#FFFFFF" height="34.584" rx="12.5" ry="12.5" style="stroke:#000000;stroke-width:1.0;" width="160" x="123" y="747.6702"/><text fill="#000000" font-family="Verdana" font-size="12" lengthAdjust="spacing" textLength="140" x="133" y="769.7346">&#25243;&#20986;PlantUML&#19981;&#21487;&#29992;&#38169;&#35823;</text><ellipse cx="203" cy="821.4622" fill="none" rx="11" ry="11" style="stroke:#000000;stroke-width:1.0;"/><ellipse cx="203" cy="821.4622" fill="#FFFFFF" rx="6" ry="6" style="stroke:#000000;stroke-width:1.0;"/><polygon fill="#FFFFFF" points="178,698.9858,228,698.9858,240,710.9858,228,722.9858,178,722.9858,166,710.9858,178,698.9858" style="stroke:#000000;stroke-width:1.0;"/><text fill="#000000" font-family="Verdana" font-size="11" lengthAdjust="spacing" textLength="11" x="207" y="734.0449">&#21542;</text><text fill="#000000" font-family="Verdana" font-size="11" lengthAdjust="spacing" textLength="50" x="178" y="715.3606">&#19979;&#36733;&#25104;&#21151;?</text><text fill="#000000" font-family="Verdana" font-size="11" lengthAdjust="spacing" textLength="11" x="240" y="708.6763">&#26159;</text><polygon fill="#FFFFFF" points="163.5,541.1335,242.5,541.1335,254.5,553.1335,242.5,565.1335,163.5,565.1335,151.5,553.1335,163.5,541.1335" style="stroke:#000000;stroke-width:1.0;"/><text fill="#000000" font-family="Verdana" font-size="11" lengthAdjust="spacing" textLength="11" x="207" y="576.1926">&#21542;</text><text fill="#000000" font-family="Verdana" font-size="11" lengthAdjust="spacing" textLength="79" x="163.5" y="557.5083">PlantUML&#21487;&#29992;?</text><text fill="#000000" font-family="Verdana" font-size="11" lengthAdjust="spacing" textLength="11" x="254.5" y="550.824">&#26159;</text><polygon fill="#FFFFFF" points="203,874.4622,215,886.4622,203,898.4622,191,886.4622,203,874.4622" style="stroke:#000000;stroke-width:1.0;"/><rect fill="#FFFFFF" height="34.584" rx="12.5" ry="12.5" style="stroke:#000000;stroke-width:1.0;" width="104" x="151" y="918.4622"/><text fill="#000000" font-family="Verdana" font-size="12" lengthAdjust="spacing" textLength="84" x="161" y="940.5266">&#21021;&#22987;&#21270;&#26680;&#24515;&#32452;&#20214;</text><rect fill="#FFFFFF" height="63.752" rx="12.5" ry="12.5" style="stroke:#000000;stroke-width:1.0;" width="127" x="139.5" y="973.0461"/><text fill="#000000" font-family="Verdana" font-size="12" lengthAdjust="spacing" textLength="107" x="149.5" y="995.1106">- &#21021;&#22987;&#21270;UML&#28210;&#26579;&#22120;</text><text fill="#000000" font-family="Verdana" font-size="12" lengthAdjust="spacing" textLength="93" x="149.5" y="1009.6946">- &#21021;&#22987;&#21270;&#32531;&#23384;&#31995;&#32479;</text><text fill="#000000" font-family="Verdana" font-size="12" lengthAdjust="spacing" textLength="93" x="149.5" y="1024.2786">- &#21021;&#22987;&#21270;&#24615;&#33021;&#25351;&#26631;</text><rect fill="#FFFFFF" height="34.584" rx="12.5" ry="12.5" style="stroke:#000000;stroke-width:1.0;" width="93" x="156.5" y="1056.7981"/><text fill="#000000" font-family="Verdana" font-size="12" lengthAdjust="spacing" textLength="73" x="166.5" y="1078.8625">&#27880;&#20876;MCP&#24037;&#20855;</text><rect fill="#FFFFFF" height="122.0879" rx="12.5" ry="12.5" style="stroke:#000000;stroke-width:1.0;" width="169" x="118.5" y="1111.3821"/><text fill="#000000" font-family="Verdana" font-size="12" lengthAdjust="spacing" textLength="79" x="128.5" y="1133.4465">- render_uml</text><text fill="#000000" font-family="Verdana" font-size="12" lengthAdjust="spacing" textLength="124" x="128.5" y="1148.0305">- render_uml_to_file</text><text fill="#000000" font-family="Verdana" font-size="12" lengthAdjust="spacing" textLength="134" x="128.5" y="1162.6145">- validate_uml_syntax</text><text fill="#000000" font-family="Verdana" font-size="12" lengthAdjust="spacing" textLength="140" x="128.5" y="1177.1985">- generate_preview_url</text><text fill="#000000" font-family="Verdana" font-size="12" lengthAdjust="spacing" textLength="80" x="128.5" y="1191.7825">- get_metrics</text><text fill="#000000" font-family="Verdana" font-size="12" lengthAdjust="spacing" textLength="149" x="128.5" y="1206.3665">- get_supported_formats</text><text fill="#000000" font-family="Verdana" font-size="12" lengthAdjust="spacing" textLength="107" x="128.5" y="1220.9504">- get_service_info</text><rect fill="#FFFFFF" height="34.584" rx="12.5" ry="12.5" style="stroke:#000000;stroke-width:1.0;" width="130" x="138" y="1253.47"/><text fill="#000000" font-family="Verdana" font-size="12" lengthAdjust="spacing" textLength="110" x="148" y="1275.5344">&#21551;&#21160;FastMCP&#26381;&#21153;&#22120;</text><rect fill="#FFFFFF" height="34.584" rx="12.5" ry="12.5" style="stroke:#000000;stroke-width:1.0;" width="96" x="155" y="1308.054"/><text fill="#000000" font-family="Verdana" font-size="12" lengthAdjust="spacing" textLength="76" x="165" y="1330.1184">&#30417;&#21548;stdio&#20256;&#36755;</text><rect fill="#FFFFFF" height="34.584" rx="12.5" ry="12.5" style="stroke:#000000;stroke-width:1.0;" width="92" x="157" y="1362.6379"/><text fill="#000000" font-family="Verdana" font-size="12" lengthAdjust="spacing" textLength="72" x="167" y="1384.7024">&#26381;&#21153;&#36816;&#34892;&#20013;...</text><rect fill="#FFFFFF" height="34.584" rx="12.5" ry="12.5" style="stroke:#000000;stroke-width:1.0;" width="104" x="151" y="1461.2219"/><text fill="#000000" font-family="Verdana" font-size="12" lengthAdjust="spacing" textLength="84" x="161" y="1483.2864">&#31561;&#24453;&#23458;&#25143;&#31471;&#35831;&#27714;</text><rect fill="#FFFFFF" height="34.584" rx="12.5" ry="12.5" style="stroke:#000000;stroke-width:1.0;" width="93" x="156.5" y="1564.4902"/><text fill="#000000" font-family="Verdana" font-size="12" lengthAdjust="spacing" textLength="73" x="166.5" y="1586.5547">&#35299;&#26512;MCP&#28040;&#24687;</text><rect fill="#FFFFFF" height="34.584" rx="12.5" ry="12.5" style="stroke:#000000;stroke-width:1.0;" width="92" x="157" y="1619.0742"/><text fill="#000000" font-family="Verdana" font-size="12" lengthAdjust="spacing" textLength="72" x="167" y="1641.1387">&#39564;&#35777;&#35831;&#27714;&#21442;&#25968;</text><polygon fill="#FFFFFF" points="178,1673.6582,228,1673.6582,240,1685.6582,228,1697.6582,178,1697.6582,166,1685.6582,178,1673.6582" style="stroke:#000000;stroke-width:1.0;"/><text fill="#000000" font-family="Verdana" font-size="11" lengthAdjust="spacing" textLength="50" x="178" y="1690.033">&#21442;&#25968;&#26377;&#25928;?</text><text fill="#000000" font-family="Verdana" font-size="11" lengthAdjust="spacing" textLength="11" x="155" y="1683.3486">&#26159;</text><text fill="#000000" font-family="Verdana" font-size="11" lengthAdjust="spacing" textLength="11" x="240" y="1683.3486">&#21542;</text><rect fill="#FFFFFF" height="34.584" rx="12.5" ry="12.5" style="stroke:#000000;stroke-width:1.0;" width="104" x="92" y="1707.6582"/><text fill="#000000" font-family="Verdana" font-size="12" lengthAdjust="spacing" textLength="84" x="102" y="1729.7227">&#20998;&#21457;&#21040;&#23545;&#24212;&#24037;&#20855;</text><rect fill="#FFFFFF" height="34.584" rx="12.5" ry="12.5" style="stroke:#000000;stroke-width:1.0;" width="92" x="98" y="1777.2422"/><text fill="#000000" font-family="Verdana" font-size="12" lengthAdjust="spacing" textLength="72" x="108" y="1799.3066">&#25191;&#34892;&#24037;&#20855;&#36923;&#36753;</text><rect fill="#FFFFFF" height="34.584" rx="12.5" ry="12.5" style="stroke:#000000;stroke-width:1.0;" width="92" x="98" y="1831.8262"/><text fill="#000000" font-family="Verdana" font-size="12" lengthAdjust="spacing" textLength="72" x="108" y="1853.8906">&#21457;&#36865;&#25104;&#21151;&#21709;&#24212;</text><rect fill="#FFFFFF" height="34.584" rx="12.5" ry="12.5" style="stroke:#000000;stroke-width:1.0;" width="92" x="216" y="1707.6582"/><text fill="#000000" font-family="Verdana" font-size="12" lengthAdjust="spacing" textLength="72" x="226" y="1729.7227">&#21457;&#36865;&#38169;&#35823;&#21709;&#24212;</text><polygon fill="#FFFFFF" points="203,1872.4102,215,1884.4102,203,1896.4102,191,1884.4102,203,1872.4102" style="stroke:#000000;stroke-width:1.0;"/><rect fill="#FFFFFF" height="34.584" rx="12.5" ry="12.5" style="stroke:#000000;stroke-width:1.0;" width="92" x="157" y="1916.4102"/><text fill="#000000" font-family="Verdana" font-size="12" lengthAdjust="spacing" textLength="72" x="167" y="1938.4746">&#26356;&#26032;&#24615;&#33021;&#25351;&#26631;</text><polygon fill="#FFFFFF" points="178,1515.8059,228,1515.8059,240,1527.8059,228,1539.8059,178,1539.8059,166,1527.8059,178,1515.8059" style="stroke:#000000;stroke-width:1.0;"/><text fill="#000000" font-family="Verdana" font-size="11" lengthAdjust="spacing" textLength="11" x="207" y="1550.865">&#26159;</text><text fill="#000000" font-family="Verdana" font-size="11" lengthAdjust="spacing" textLength="50" x="178" y="1532.1807">&#25910;&#21040;&#35831;&#27714;?</text><text fill="#000000" font-family="Verdana" font-size="11" lengthAdjust="spacing" textLength="11" x="240" y="1525.4963">&#21542;</text><polygon fill="#FFFFFF" points="203,1970.9941,215,1982.9941,203,1994.9941,191,1982.9941,203,1970.9941" style="stroke:#000000;stroke-width:1.0;"/><polygon fill="#FFFFFF" points="167,2014.9941,239,2014.9941,251,2026.9941,239,2038.9941,167,2038.9941,155,2026.9941,167,2014.9941" style="stroke:#000000;stroke-width:1.0;"/><text fill="#000000" font-family="Verdana" font-size="11" lengthAdjust="spacing" textLength="11" x="207" y="2050.0532">&#26159;</text><text fill="#000000" font-family="Verdana" font-size="11" lengthAdjust="spacing" textLength="72" x="167" y="2031.3689">&#25910;&#21040;&#20851;&#38381;&#20449;&#21495;?</text><text fill="#000000" font-family="Verdana" font-size="11" lengthAdjust="spacing" textLength="11" x="251" y="2024.6846">&#21542;</text><polygon fill="#FFFFFF" points="203,1417.2219,215,1429.2219,203,1441.2219,191,1429.2219,203,1417.2219" style="stroke:#000000;stroke-width:1.0;"/><polygon fill="#FFFFFF" points="175.5,2102.6785,230.5,2102.6785,242.5,2114.6785,230.5,2126.6785,175.5,2126.6785,163.5,2114.6785,175.5,2102.6785" style="stroke:#000000;stroke-width:1.0;"/><text fill="#000000" font-family="Verdana" font-size="11" lengthAdjust="spacing" textLength="55" x="175.5" y="2119.0532">&#26381;&#21153;&#36816;&#34892;&#20013;</text><polygon fill="#FFFFFF" points="203,2146.6785,215,2158.6785,203,2170.6785,191,2158.6785,203,2146.6785" style="stroke:#000000;stroke-width:1.0;"/><rect fill="#FFFFFF" height="34.584" rx="12.5" ry="12.5" style="stroke:#000000;stroke-width:1.0;" width="92" x="157" y="2190.6785"/><text fill="#000000" font-family="Verdana" font-size="12" lengthAdjust="spacing" textLength="72" x="167" y="2212.7429">&#24320;&#22987;&#20248;&#38597;&#20851;&#38381;</text><rect fill="#FFFFFF" height="34.584" rx="12.5" ry="12.5" style="stroke:#000000;stroke-width:1.0;" width="104" x="151" y="2245.2625"/><text fill="#000000" font-family="Verdana" font-size="12" lengthAdjust="spacing" textLength="84" x="161" y="2267.3269">&#20572;&#27490;&#25509;&#21463;&#26032;&#35831;&#27714;</text><rect fill="#FFFFFF" height="34.584" rx="12.5" ry="12.5" style="stroke:#000000;stroke-width:1.0;" width="116" x="145" y="2299.8464"/><text fill="#000000" font-family="Verdana" font-size="12" lengthAdjust="spacing" textLength="96" x="155" y="2321.9109">&#31561;&#24453;&#24403;&#21069;&#35831;&#27714;&#23436;&#25104;</text><rect fill="#FFFFFF" height="34.584" rx="12.5" ry="12.5" style="stroke:#000000;stroke-width:1.0;" width="68" x="169" y="2354.4304"/><text fill="#000000" font-family="Verdana" font-size="12" lengthAdjust="spacing" textLength="48" x="179" y="2376.4949">&#28165;&#29702;&#36164;&#28304;</text><rect fill="#FFFFFF" height="78.3359" rx="12.5" ry="12.5" style="stroke:#000000;stroke-width:1.0;" width="113" x="146.5" y="2409.0144"/><text fill="#000000" font-family="Verdana" font-size="12" lengthAdjust="spacing" textLength="69" x="156.5" y="2431.0789">- &#20851;&#38381;&#28210;&#26579;&#22120;</text><text fill="#000000" font-family="Verdana" font-size="12" lengthAdjust="spacing" textLength="93" x="156.5" y="2445.6628">- &#20445;&#23384;&#32531;&#23384;&#21040;&#30913;&#30424;</text><text fill="#000000" font-family="Verdana" font-size="12" lengthAdjust="spacing" textLength="81" x="156.5" y="2460.2468">- &#23548;&#20986;&#26368;&#32456;&#25351;&#26631;</text><text fill="#000000" font-family="Verdana" font-size="12" lengthAdjust="spacing" textLength="81" x="156.5" y="2474.8308">- &#20851;&#38381;&#26085;&#24535;&#31995;&#32479;</text><rect fill="#FFFFFF" height="34.584" rx="12.5" ry="12.5" style="stroke:#000000;stroke-width:1.0;" width="92" x="157" y="2507.3503"/><text fill="#000000" font-family="Verdana" font-size="12" lengthAdjust="spacing" textLength="72" x="167" y="2529.4148">&#35760;&#24405;&#20851;&#38381;&#26085;&#24535;</text><ellipse cx="203" cy="2572.9343" fill="none" rx="11" ry="11" style="stroke:#000000;stroke-width:1.0;"/><ellipse cx="203" cy="2572.9343" fill="#FFFFFF" rx="6" ry="6" style="stroke:#000000;stroke-width:1.0;"/><line style="stroke:#000000;stroke-width:1.0;" x1="203" x2="203" y1="72.7373" y2="92.7373"/><polygon fill="#000000" points="199,82.7373,203,92.7373,207,82.7373,203,86.7373" style="stroke:#000000;stroke-width:1.0;"/><line style="stroke:#000000;stroke-width:1.0;" x1="203" x2="203" y1="127.3213" y2="147.3213"/><polygon fill="#000000" points="199,137.3213,203,147.3213,207,137.3213,203,141.3213" style="stroke:#000000;stroke-width:1.0;"/><line style="stroke:#000000;stroke-width:1.0;" x1="203" x2="203" y1="285.1736" y2="313.3816"/><polygon fill="#000000" points="199,303.3816,203,313.3816,207,303.3816,203,307.3816" style="stroke:#000000;stroke-width:1.0;"/><line style="stroke:#000000;stroke-width:1.0;" x1="203" x2="203" y1="225.9053" y2="250.5896"/><polygon fill="#000000" points="199,240.5896,203,250.5896,207,240.5896,203,244.5896" style="stroke:#000000;stroke-width:1.0;"/><line style="stroke:#000000;stroke-width:1.0;" x1="240" x2="259" y1="213.9053" y2="213.9053"/><polygon fill="#000000" points="255,283.3816,259,293.3816,263,283.3816,259,287.3816" style="stroke:#000000;stroke-width:1.0;"/><line style="stroke:#000000;stroke-width:1.0;" x1="259" x2="259" y1="213.9053" y2="357.3816"/><line style="stroke:#000000;stroke-width:1.0;" x1="259" x2="203" y1="357.3816" y2="357.3816"/><line style="stroke:#000000;stroke-width:1.0;" x1="203" x2="203" y1="357.3816" y2="377.3816"/><polygon fill="#000000" points="199,367.3816,203,377.3816,207,367.3816,203,371.3816" style="stroke:#000000;stroke-width:1.0;"/><line style="stroke:#000000;stroke-width:1.0;" x1="203" x2="203" y1="181.9053" y2="201.9053"/><polygon fill="#000000" points="199,191.9053,203,201.9053,207,191.9053,203,195.9053" style="stroke:#000000;stroke-width:1.0;"/><line style="stroke:#000000;stroke-width:1.0;" x1="203" x2="203" y1="411.9656" y2="431.9656"/><polygon fill="#000000" points="199,421.9656,203,431.9656,207,421.9656,203,425.9656" style="stroke:#000000;stroke-width:1.0;"/><line style="stroke:#000000;stroke-width:1.0;" x1="203" x2="203" y1="466.5496" y2="486.5496"/><polygon fill="#000000" points="199,476.5496,203,486.5496,207,476.5496,203,480.5496" style="stroke:#000000;stroke-width:1.0;"/><line style="stroke:#000000;stroke-width:1.0;" x1="203" x2="203" y1="624.4019" y2="644.4019"/><polygon fill="#000000" points="199,634.4019,203,644.4019,207,634.4019,203,638.4019" style="stroke:#000000;stroke-width:1.0;"/><line style="stroke:#000000;stroke-width:1.0;" x1="203" x2="203" y1="782.2542" y2="810.4622"/><polygon fill="#000000" points="199,800.4622,203,810.4622,207,800.4622,203,804.4622" style="stroke:#000000;stroke-width:1.0;"/><line style="stroke:#000000;stroke-width:1.0;" x1="203" x2="203" y1="722.9858" y2="747.6702"/><polygon fill="#000000" points="199,737.6702,203,747.6702,207,737.6702,203,741.6702" style="stroke:#000000;stroke-width:1.0;"/><line style="stroke:#000000;stroke-width:1.0;" x1="240" x2="293" y1="710.9858" y2="710.9858"/><polygon fill="#000000" points="289,780.4622,293,790.4622,297,780.4622,293,784.4622" style="stroke:#000000;stroke-width:1.0;"/><line style="stroke:#000000;stroke-width:1.0;" x1="293" x2="293" y1="710.9858" y2="854.4622"/><line style="stroke:#000000;stroke-width:1.0;" x1="293" x2="203" y1="854.4622" y2="854.4622"/><line style="stroke:#000000;stroke-width:1.0;" x1="203" x2="203" y1="854.4622" y2="874.4622"/><polygon fill="#000000" points="199,864.4622,203,874.4622,207,864.4622,203,868.4622" style="stroke:#000000;stroke-width:1.0;"/><line style="stroke:#000000;stroke-width:1.0;" x1="203" x2="203" y1="678.9858" y2="698.9858"/><polygon fill="#000000" points="199,688.9858,203,698.9858,207,688.9858,203,692.9858" style="stroke:#000000;stroke-width:1.0;"/><line style="stroke:#000000;stroke-width:1.0;" x1="203" x2="203" y1="565.1335" y2="589.8179"/><polygon fill="#000000" points="199,579.8179,203,589.8179,207,579.8179,203,583.8179" style="stroke:#000000;stroke-width:1.0;"/><line style="stroke:#000000;stroke-width:1.0;" x1="254.5" x2="315" y1="553.1335" y2="553.1335"/><polygon fill="#000000" points="311,704.8782,315,714.8782,319,704.8782,315,708.8782" style="stroke:#000000;stroke-width:1.0;"/><line style="stroke:#000000;stroke-width:1.0;" x1="315" x2="315" y1="553.1335" y2="886.4622"/><line style="stroke:#000000;stroke-width:1.0;" x1="315" x2="215" y1="886.4622" y2="886.4622"/><polygon fill="#000000" points="225,882.4622,215,886.4622,225,890.4622,221,886.4622" style="stroke:#000000;stroke-width:1.0;"/><line style="stroke:#000000;stroke-width:1.0;" x1="203" x2="203" y1="521.1335" y2="541.1335"/><polygon fill="#000000" points="199,531.1335,203,541.1335,207,531.1335,203,535.1335" style="stroke:#000000;stroke-width:1.0;"/><line style="stroke:#000000;stroke-width:1.0;" x1="203" x2="203" y1="898.4622" y2="918.4622"/><polygon fill="#000000" points="199,908.4622,203,918.4622,207,908.4622,203,912.4622" style="stroke:#000000;stroke-width:1.0;"/><line style="stroke:#000000;stroke-width:1.0;" x1="203" x2="203" y1="953.0461" y2="973.0461"/><polygon fill="#000000" points="199,963.0461,203,973.0461,207,963.0461,203,967.0461" style="stroke:#000000;stroke-width:1.0;"/><line style="stroke:#000000;stroke-width:1.0;" x1="203" x2="203" y1="1036.7981" y2="1056.7981"/><polygon fill="#000000" points="199,1046.7981,203,1056.7981,207,1046.7981,203,1050.7981" style="stroke:#000000;stroke-width:1.0;"/><line style="stroke:#000000;stroke-width:1.0;" x1="203" x2="203" y1="1091.3821" y2="1111.3821"/><polygon fill="#000000" points="199,1101.3821,203,1111.3821,207,1101.3821,203,1105.3821" style="stroke:#000000;stroke-width:1.0;"/><line style="stroke:#000000;stroke-width:1.0;" x1="203" x2="203" y1="1233.47" y2="1253.47"/><polygon fill="#000000" points="199,1243.47,203,1253.47,207,1243.47,203,1247.47" style="stroke:#000000;stroke-width:1.0;"/><line style="stroke:#000000;stroke-width:1.0;" x1="203" x2="203" y1="1288.054" y2="1308.054"/><polygon fill="#000000" points="199,1298.054,203,1308.054,207,1298.054,203,1302.054" style="stroke:#000000;stroke-width:1.0;"/><line style="stroke:#000000;stroke-width:1.0;" x1="203" x2="203" y1="1342.6379" y2="1362.6379"/><polygon fill="#000000" points="199,1352.6379,203,1362.6379,207,1352.6379,203,1356.6379" style="stroke:#000000;stroke-width:1.0;"/><line style="stroke:#000000;stroke-width:1.0;" x1="203" x2="203" y1="1599.0742" y2="1619.0742"/><polygon fill="#000000" points="199,1609.0742,203,1619.0742,207,1609.0742,203,1613.0742" style="stroke:#000000;stroke-width:1.0;"/><line style="stroke:#000000;stroke-width:1.0;" x1="144" x2="144" y1="1742.2422" y2="1777.2422"/><polygon fill="#000000" points="140,1767.2422,144,1777.2422,148,1767.2422,144,1771.2422" style="stroke:#000000;stroke-width:1.0;"/><line style="stroke:#000000;stroke-width:1.0;" x1="144" x2="144" y1="1811.8262" y2="1831.8262"/><polygon fill="#000000" points="140,1821.8262,144,1831.8262,148,1821.8262,144,1825.8262" style="stroke:#000000;stroke-width:1.0;"/><line style="stroke:#000000;stroke-width:1.0;" x1="166" x2="144" y1="1685.6582" y2="1685.6582"/><line style="stroke:#000000;stroke-width:1.0;" x1="144" x2="144" y1="1685.6582" y2="1707.6582"/><polygon fill="#000000" points="140,1697.6582,144,1707.6582,148,1697.6582,144,1701.6582" style="stroke:#000000;stroke-width:1.0;"/><line style="stroke:#000000;stroke-width:1.0;" x1="240" x2="262" y1="1685.6582" y2="1685.6582"/><line style="stroke:#000000;stroke-width:1.0;" x1="262" x2="262" y1="1685.6582" y2="1707.6582"/><polygon fill="#000000" points="258,1697.6582,262,1707.6582,266,1697.6582,262,1701.6582" style="stroke:#000000;stroke-width:1.0;"/><line style="stroke:#000000;stroke-width:1.0;" x1="144" x2="144" y1="1866.4102" y2="1884.4102"/><line style="stroke:#000000;stroke-width:1.0;" x1="144" x2="191" y1="1884.4102" y2="1884.4102"/><polygon fill="#000000" points="181,1880.4102,191,1884.4102,181,1888.4102,185,1884.4102" style="stroke:#000000;stroke-width:1.0;"/><line style="stroke:#000000;stroke-width:1.0;" x1="262" x2="262" y1="1742.2422" y2="1884.4102"/><line style="stroke:#000000;stroke-width:1.0;" x1="262" x2="215" y1="1884.4102" y2="1884.4102"/><polygon fill="#000000" points="225,1880.4102,215,1884.4102,225,1888.4102,221,1884.4102" style="stroke:#000000;stroke-width:1.0;"/><line style="stroke:#000000;stroke-width:1.0;" x1="203" x2="203" y1="1653.6582" y2="1673.6582"/><polygon fill="#000000" points="199,1663.6582,203,1673.6582,207,1663.6582,203,1667.6582" style="stroke:#000000;stroke-width:1.0;"/><line style="stroke:#000000;stroke-width:1.0;" x1="203" x2="203" y1="1896.4102" y2="1916.4102"/><polygon fill="#000000" points="199,1906.4102,203,1916.4102,207,1906.4102,203,1910.4102" style="stroke:#000000;stroke-width:1.0;"/><line style="stroke:#000000;stroke-width:1.0;" x1="203" x2="203" y1="1539.8059" y2="1564.4902"/><polygon fill="#000000" points="199,1554.4902,203,1564.4902,207,1554.4902,203,1558.4902" style="stroke:#000000;stroke-width:1.0;"/><line style="stroke:#000000;stroke-width:1.0;" x1="240" x2="328" y1="1527.8059" y2="1527.8059"/><polygon fill="#000000" points="324,1747.7422,328,1757.7422,332,1747.7422,328,1751.7422" style="stroke:#000000;stroke-width:1.0;"/><line style="stroke:#000000;stroke-width:1.0;" x1="328" x2="328" y1="1527.8059" y2="1982.9941"/><line style="stroke:#000000;stroke-width:1.0;" x1="328" x2="215" y1="1982.9941" y2="1982.9941"/><polygon fill="#000000" points="225,1978.9941,215,1982.9941,225,1986.9941,221,1982.9941" style="stroke:#000000;stroke-width:1.0;"/><line style="stroke:#000000;stroke-width:1.0;" x1="203" x2="203" y1="1950.9941" y2="1970.9941"/><polygon fill="#000000" points="199,1960.9941,203,1970.9941,207,1960.9941,203,1964.9941" style="stroke:#000000;stroke-width:1.0;"/><line style="stroke:#000000;stroke-width:1.0;" x1="203" x2="203" y1="1495.8059" y2="1515.8059"/><polygon fill="#000000" points="199,1505.8059,203,1515.8059,207,1505.8059,203,1509.8059" style="stroke:#000000;stroke-width:1.0;"/><line style="stroke:#000000;stroke-width:1.0;" x1="203" x2="203" y1="2038.9941" y2="2063.6785"/><line style="stroke:#000000;stroke-width:1.0;" x1="203" x2="62" y1="2063.6785" y2="2063.6785"/><line style="stroke:#000000;stroke-width:1.0;" x1="62" x2="62" y1="2063.6785" y2="2158.6785"/><line style="stroke:#000000;stroke-width:1.0;" x1="62" x2="191" y1="2158.6785" y2="2158.6785"/><polygon fill="#000000" points="181,2154.6785,191,2158.6785,181,2162.6785,185,2158.6785" style="stroke:#000000;stroke-width:1.0;"/><line style="stroke:#000000;stroke-width:1.0;" x1="251" x2="263" y1="2026.9941" y2="2026.9941"/><polygon fill="#000000" points="259,2050.6785,263,2060.6785,267,2050.6785,263,2054.6785" style="stroke:#000000;stroke-width:1.0;"/><line style="stroke:#000000;stroke-width:1.0;" x1="263" x2="263" y1="2026.9941" y2="2082.6785"/><line style="stroke:#000000;stroke-width:1.0;" x1="263" x2="203" y1="2082.6785" y2="2082.6785"/><line style="stroke:#000000;stroke-width:1.0;" x1="203" x2="203" y1="2082.6785" y2="2102.6785"/><polygon fill="#000000" points="199,2092.6785,203,2102.6785,207,2092.6785,203,2096.6785" style="stroke:#000000;stroke-width:1.0;"/><line style="stroke:#000000;stroke-width:1.0;" x1="203" x2="203" y1="1994.9941" y2="2014.9941"/><polygon fill="#000000" points="199,2004.9941,203,2014.9941,207,2004.9941,203,2008.9941" style="stroke:#000000;stroke-width:1.0;"/><line style="stroke:#000000;stroke-width:1.0;" x1="203" x2="203" y1="1441.2219" y2="1461.2219"/><polygon fill="#000000" points="199,1451.2219,203,1461.2219,207,1451.2219,203,1455.2219" style="stroke:#000000;stroke-width:1.0;"/><line style="stroke:#000000;stroke-width:1.0;" x1="242.5" x2="346" y1="2114.6785" y2="2114.6785"/><polygon fill="#000000" points="342,1790.1345,346,1780.1345,350,1790.1345,346,1786.1345" style="stroke:#000000;stroke-width:1.0;"/><line style="stroke:#000000;stroke-width:1.0;" x1="346" x2="346" y1="1429.2219" y2="2114.6785"/><line style="stroke:#000000;stroke-width:1.0;" x1="346" x2="215" y1="1429.2219" y2="1429.2219"/><polygon fill="#000000" points="225,1425.2219,215,1429.2219,225,1433.2219,221,1429.2219" style="stroke:#000000;stroke-width:1.0;"/><line style="stroke:#000000;stroke-width:1.0;" x1="203" x2="203" y1="2126.6785" y2="2146.6785"/><polygon fill="#000000" points="199,2136.6785,203,2146.6785,207,2136.6785,203,2140.6785" style="stroke:#000000;stroke-width:1.0;"/><line style="stroke:#000000;stroke-width:1.0;" x1="203" x2="203" y1="1397.2219" y2="1417.2219"/><polygon fill="#000000" points="199,1407.2219,203,1417.2219,207,1407.2219,203,1411.2219" style="stroke:#000000;stroke-width:1.0;"/><line style="stroke:#000000;stroke-width:1.0;" x1="203" x2="203" y1="2170.6785" y2="2190.6785"/><polygon fill="#000000" points="199,2180.6785,203,2190.6785,207,2180.6785,203,2184.6785" style="stroke:#000000;stroke-width:1.0;"/><line style="stroke:#000000;stroke-width:1.0;" x1="203" x2="203" y1="2225.2625" y2="2245.2625"/><polygon fill="#000000" points="199,2235.2625,203,2245.2625,207,2235.2625,203,2239.2625" style="stroke:#000000;stroke-width:1.0;"/><line style="stroke:#000000;stroke-width:1.0;" x1="203" x2="203" y1="2279.8464" y2="2299.8464"/><polygon fill="#000000" points="199,2289.8464,203,2299.8464,207,2289.8464,203,2293.8464" style="stroke:#000000;stroke-width:1.0;"/><line style="stroke:#000000;stroke-width:1.0;" x1="203" x2="203" y1="2334.4304" y2="2354.4304"/><polygon fill="#000000" points="199,2344.4304,203,2354.4304,207,2344.4304,203,2348.4304" style="stroke:#000000;stroke-width:1.0;"/><line style="stroke:#000000;stroke-width:1.0;" x1="203" x2="203" y1="2389.0144" y2="2409.0144"/><polygon fill="#000000" points="199,2399.0144,203,2409.0144,207,2399.0144,203,2403.0144" style="stroke:#000000;stroke-width:1.0;"/><line style="stroke:#000000;stroke-width:1.0;" x1="203" x2="203" y1="2487.3503" y2="2507.3503"/><polygon fill="#000000" points="199,2497.3503,203,2507.3503,207,2497.3503,203,2501.3503" style="stroke:#000000;stroke-width:1.0;"/><line style="stroke:#000000;stroke-width:1.0;" x1="203" x2="203" y1="2541.9343" y2="2561.9343"/><polygon fill="#000000" points="199,2551.9343,203,2561.9343,207,2551.9343,203,2555.9343" style="stroke:#000000;stroke-width:1.0;"/><!--SRC=[RLJBSjf04BphAvIRETWV08SSKfLJNELBpfHYbbWLNYMjxUG6jZ42WmK132vmyACmL18GYMD348-VOLRINsIb1GMmZzkpEpCztREly1uA8puM4iG8XqKSGlpxxNVyzfiTdWn-aqQHr7EGkU4tUQFKWC8O2crIRv37XD4-Wzg4usGiI9ZZlAQcWtfXd6jmUmngrKgfy3Lh9NF6kEkZOUjxrjGIx0pg4IdtV9mOv3SOGkffKbPUUtZQJOJVWFozX-DvBydK83LaLwpIfQbfFWhBE1hZK4X6_0QfQXuEHG9Ya9O0fGRw4AP9ypvXrBemBliSz0fQPv2z89KcJ2l6Wsxe3Jj0xkAaqTm92H5C6OEg6QKsYRTOMwlmiyRCRe-cDpltKCYml7PZNkXTcLfvDZWpn-D51ZjWPsGeKVAGQQpdSwak7iq6ELRvF-ivRvvVOauF3lSNXx6WVJs0wR6Xdypq9n_dtUJT2At398RBDhU46wCYTAfiKCiu7OvvF2RP5BbEEGDyQCDfbZe5-ar8zfta4gsF9Fz-ECGj7_muwW-A8KJ10o4a1WIC75Z-4i72Puf-H14asMXCGWSYElJlIo47nlummfAuAyzFydui5fKm2lY3KIaiO1T7qe6uY_nY91XrPCzha6c_5MHC6sGUfZHfZqQj0FcVCWw8qTdesfmK7IhE1NEQDs-oiq5dQskBeXAA8G7RkXgTD4oIqBqbIj_uePbQd_mwiaMPQqjAJw3q6EngErV8TalhZdpBstqyAIGnLtE-4UpHOYFiW9sGdTUsmareEqqv1RL0YuBs5uQbXGBpA4ctA146Md7Td1JS47rbnHFCXb3CqRSin2pa-j6zoGouSjDn6AjJ-qCkUgk-M4krkBqoAKW-M9NER7e3QlyvlGyI4Zwzd8T9mX_kKI_H5wkgUMpPHt5grjceQjMIh8fZXaITT6x9UHFK2crueH-t47PSX7HkhaGtIuVZU6AGDFAdvkC96URPuZZvbbTcDhsoDyNP5qhBkAF_JjLU6Mr4bvdKuuQkiBbmxlErNuZz9Cind_sdqat_1m00]--></g></svg>