<?xml version="1.0" encoding="us-ascii" standalone="no"?><svg xmlns="http://www.w3.org/2000/svg" xmlns:xlink="http://www.w3.org/1999/xlink" contentStyleType="text/css" height="1280px" preserveAspectRatio="none" style="width:1353px;height:1280px;background:#FFFFFF;" version="1.1" viewBox="0 0 1353 1280" width="1353px" zoomAndPan="magnify"><defs/><g><text fill="#000000" font-family="Verdana" font-size="22" font-weight="bold" lengthAdjust="spacing" textLength="303" x="520.65" y="37.1182">UML MCP &#28210;&#26579;&#26381;&#21153; - &#29992;&#20363;&#22270;</text><!--cluster UML MCP ????--><g id="cluster_UML MCP &#28210;&#26579;&#26381;&#21153;"><path d="M410.94,342.3373 L543.94,342.3373 A3.75,3.75 0 0 1 546.44,344.8373 L553.44,365.352 L1128.49,365.352 A2.5,2.5 0 0 1 1130.99,367.852 L1130.99,758.8373 A2.5,2.5 0 0 1 1128.49,761.3373 L410.94,761.3373 A2.5,2.5 0 0 1 408.44,758.8373 L408.44,344.8373 A2.5,2.5 0 0 1 410.94,342.3373 " fill="#FFFFFF" style="stroke:#000000;stroke-width:1.0;"/><line style="stroke:#000000;stroke-width:1.0;" x1="408.44" x2="553.44" y1="365.352" y2="365.352"/><text fill="#000000" font-family="Verdana" font-size="14" font-weight="bold" lengthAdjust="spacing" textLength="132" x="412.44" y="358.4125">UML MCP &#28210;&#26579;&#26381;&#21153;</text></g><!--cluster ????--><g id="cluster_&#25193;&#23637;&#21151;&#33021;"><path d="M432.31,935.3373 L489.31,935.3373 A3.75,3.75 0 0 1 491.81,937.8373 L498.81,958.352 L561.69,958.352 A2.5,2.5 0 0 1 564.19,960.852 L564.19,1209.8373 A2.5,2.5 0 0 1 561.69,1212.3373 L432.31,1212.3373 A2.5,2.5 0 0 1 429.81,1209.8373 L429.81,937.8373 A2.5,2.5 0 0 1 432.31,935.3373 " fill="#FFFFFF" style="stroke:#000000;stroke-width:1.0;"/><line style="stroke:#000000;stroke-width:1.0;" x1="429.81" x2="498.81" y1="958.352" y2="958.352"/><text fill="#000000" font-family="Verdana" font-size="14" font-weight="bold" lengthAdjust="spacing" textLength="56" x="433.81" y="951.4125">&#25193;&#23637;&#21151;&#33021;</text></g><g id="elem_render_uml"><ellipse cx="772.1495" cy="662.3372" fill="#FFFFFF" rx="68.1495" ry="16.0299" style="stroke:#000000;stroke-width:1.0;"/><text fill="#000000" font-family="Verdana" font-size="14" lengthAdjust="spacing" textLength="86" x="726.1495" y="666.6248">&#28210;&#26579;UML&#22270;&#34920;</text></g><g id="elem_save_to_file"><ellipse cx="497.0025" cy="661.3398" fill="#FFFFFF" rx="72.5625" ry="16.9125" style="stroke:#000000;stroke-width:1.0;"/><text fill="#000000" font-family="Verdana" font-size="14" lengthAdjust="spacing" textLength="98" x="446.6928" y="665.2464">&#20445;&#23384;&#22270;&#34920;&#21040;&#25991;&#20214;</text></g><g id="elem_validate_syntax"><ellipse cx="772.1495" cy="729.3372" fill="#FFFFFF" rx="68.1495" ry="16.0299" style="stroke:#000000;stroke-width:1.0;"/><text fill="#000000" font-family="Verdana" font-size="14" lengthAdjust="spacing" textLength="86" x="726.1495" y="733.6248">&#39564;&#35777;UML&#35821;&#27861;</text></g><g id="elem_generate_url"><ellipse cx="496.9974" cy="729.3368" fill="#FFFFFF" rx="67.4474" ry="15.8895" style="stroke:#000000;stroke-width:1.0;"/><text fill="#000000" font-family="Verdana" font-size="14" lengthAdjust="spacing" textLength="84" x="451.9974" y="733.6244">&#29983;&#25104;&#39044;&#35272;URL</text></g><g id="elem_get_metrics"><ellipse cx="496.9974" cy="459.3368" fill="#FFFFFF" rx="67.4474" ry="15.8895" style="stroke:#000000;stroke-width:1.0;"/><text fill="#000000" font-family="Verdana" font-size="14" lengthAdjust="spacing" textLength="84" x="451.9974" y="463.6244">&#33719;&#21462;&#24615;&#33021;&#25351;&#26631;</text></g><g id="elem_get_formats"><ellipse cx="496.9974" cy="526.3368" fill="#FFFFFF" rx="67.4474" ry="15.8895" style="stroke:#000000;stroke-width:1.0;"/><text fill="#000000" font-family="Verdana" font-size="14" lengthAdjust="spacing" textLength="84" x="451.9974" y="530.6244">&#26597;&#35810;&#25903;&#25345;&#26684;&#24335;</text></g><g id="elem_get_info"><ellipse cx="496.9974" cy="593.3368" fill="#FFFFFF" rx="67.4474" ry="15.8895" style="stroke:#000000;stroke-width:1.0;"/><text fill="#000000" font-family="Verdana" font-size="14" lengthAdjust="spacing" textLength="84" x="451.9974" y="597.6244">&#33719;&#21462;&#26381;&#21153;&#20449;&#24687;</text></g><g id="elem_cache_mgmt"><ellipse cx="1063.7961" cy="528.3342" fill="#FFFFFF" rx="51.1861" ry="15.0569" style="stroke:#000000;stroke-width:1.0;"/><text fill="#000000" font-family="Verdana" font-size="14" lengthAdjust="spacing" textLength="56" x="1033.5715" y="532.4587">&#32531;&#23384;&#31649;&#29702;</text></g><g id="elem_concurrency_ctrl"><ellipse cx="1063.7961" cy="620.3342" fill="#FFFFFF" rx="51.1861" ry="15.0569" style="stroke:#000000;stroke-width:1.0;"/><text fill="#000000" font-family="Verdana" font-size="14" lengthAdjust="spacing" textLength="56" x="1033.5715" y="624.4587">&#24182;&#21457;&#25511;&#21046;</text></g><g id="elem_error_handling"><ellipse cx="1063.7961" cy="698.3342" fill="#FFFFFF" rx="51.1861" ry="15.0569" style="stroke:#000000;stroke-width:1.0;"/><text fill="#000000" font-family="Verdana" font-size="14" lengthAdjust="spacing" textLength="56" x="1033.5715" y="702.4587">&#38169;&#35823;&#22788;&#29702;</text></g><g id="elem_logging"><ellipse cx="1063.7961" cy="437.3342" fill="#FFFFFF" rx="51.1861" ry="15.0569" style="stroke:#000000;stroke-width:1.0;"/><text fill="#000000" font-family="Verdana" font-size="14" lengthAdjust="spacing" textLength="56" x="1033.5715" y="441.4587">&#26085;&#24535;&#35760;&#24405;</text></g><g id="elem_config_mgmt"><ellipse cx="496.9961" cy="393.3342" fill="#FFFFFF" rx="51.1861" ry="15.0569" style="stroke:#000000;stroke-width:1.0;"/><text fill="#000000" font-family="Verdana" font-size="14" lengthAdjust="spacing" textLength="56" x="466.7715" y="397.4587">&#37197;&#32622;&#31649;&#29702;</text></g><g id="elem_batch_render"><ellipse cx="496.9961" cy="1116.3342" fill="#FFFFFF" rx="51.1861" ry="15.0569" style="stroke:#000000;stroke-width:1.0;"/><text fill="#000000" font-family="Verdana" font-size="14" lengthAdjust="spacing" textLength="56" x="466.7715" y="1120.4587">&#25209;&#37327;&#28210;&#26579;</text></g><g id="elem_optimize_diagram"><ellipse cx="496.9961" cy="986.3342" fill="#FFFFFF" rx="51.1861" ry="15.0569" style="stroke:#000000;stroke-width:1.0;"/><text fill="#000000" font-family="Verdana" font-size="14" lengthAdjust="spacing" textLength="56" x="466.7715" y="990.4587">&#22270;&#34920;&#20248;&#21270;</text></g><g id="elem_format_convert"><ellipse cx="496.9961" cy="1051.3342" fill="#FFFFFF" rx="51.1861" ry="15.0569" style="stroke:#000000;stroke-width:1.0;"/><text fill="#000000" font-family="Verdana" font-size="14" lengthAdjust="spacing" textLength="56" x="466.7715" y="1055.4587">&#26684;&#24335;&#36716;&#25442;</text></g><g id="elem_template_mgmt"><ellipse cx="496.9961" cy="1181.3342" fill="#FFFFFF" rx="51.1861" ry="15.0569" style="stroke:#000000;stroke-width:1.0;"/><text fill="#000000" font-family="Verdana" font-size="14" lengthAdjust="spacing" textLength="56" x="466.7715" y="1185.4587">&#27169;&#26495;&#31649;&#29702;</text></g><!--entity developer--><g id="elem_developer"><ellipse cx="240" cy="535.3273" fill="#FFFFFF" rx="8" ry="8" style="stroke:#000000;stroke-width:1.0;"/><path d="M240,543.3273 L240,570.3273 M227,551.3273 L253,551.3273 M240,570.3273 L227,585.3273 M240,570.3273 L253,585.3273 " fill="none" style="stroke:#000000;stroke-width:1.0;"/><text fill="#000000" font-family="Verdana" font-size="14" lengthAdjust="spacing" textLength="42" x="219" y="601.4025">&#24320;&#21457;&#32773;</text></g><!--entity ai_assistant--><g id="elem_ai_assistant"><ellipse cx="240" cy="825.3273" fill="#FFFFFF" rx="8" ry="8" style="stroke:#000000;stroke-width:1.0;"/><path d="M240,833.3273 L240,860.3273 M227,841.3273 L253,841.3273 M240,860.3273 L227,875.3273 M240,860.3273 L253,875.3273 " fill="none" style="stroke:#000000;stroke-width:1.0;"/><text fill="#000000" font-family="Verdana" font-size="14" lengthAdjust="spacing" textLength="44" x="218" y="891.4025">AI&#21161;&#25163;</text></g><!--entity ide_user--><g id="elem_ide_user"><ellipse cx="38" cy="825.3273" fill="#FFFFFF" rx="8" ry="8" style="stroke:#000000;stroke-width:1.0;"/><path d="M38,833.3273 L38,860.3273 M25,841.3273 L51,841.3273 M38,860.3273 L25,875.3273 M38,860.3273 L51,875.3273 " fill="none" style="stroke:#000000;stroke-width:1.0;"/><text fill="#000000" font-family="Verdana" font-size="14" lengthAdjust="spacing" textLength="54" x="11" y="891.4025">IDE&#29992;&#25143;</text></g><!--entity admin--><g id="elem_admin"><ellipse cx="240" cy="335.3273" fill="#FFFFFF" rx="8" ry="8" style="stroke:#000000;stroke-width:1.0;"/><path d="M240,343.3273 L240,370.3273 M227,351.3273 L253,351.3273 M240,370.3273 L227,385.3273 M240,370.3273 L253,385.3273 " fill="none" style="stroke:#000000;stroke-width:1.0;"/><text fill="#000000" font-family="Verdana" font-size="14" lengthAdjust="spacing" textLength="70" x="205" y="401.4025">&#31995;&#32479;&#31649;&#29702;&#21592;</text></g><g id="elem_GMN47"><path d="M965.3,776.8373 L965.3,865.8339 L1162.3,865.8339 L1162.3,786.8373 L1152.3,776.8373 L965.3,776.8373 " fill="#FFFFFF" style="stroke:#000000;stroke-width:1.0;"/><path d="M1152.3,776.8373 L1152.3,786.8373 L1162.3,786.8373 L1152.3,776.8373 " fill="#FFFFFF" style="stroke:#000000;stroke-width:1.0;"/><text fill="#000000" font-family="Verdana" font-size="13" lengthAdjust="spacing" textLength="65" x="971.3" y="794.9071">&#26680;&#24515;&#21151;&#33021;&#65306;</text><text fill="#000000" font-family="Verdana" font-size="13" lengthAdjust="spacing" textLength="176" x="971.3" y="810.7064">- &#25903;&#25345;&#25152;&#26377;PlantUML&#22270;&#34920;&#31867;&#22411;</text><text fill="#000000" font-family="Verdana" font-size="13" lengthAdjust="spacing" textLength="125" x="971.3" y="826.5058">- PNG/SVG&#26684;&#24335;&#36755;&#20986;</text><text fill="#000000" font-family="Verdana" font-size="13" lengthAdjust="spacing" textLength="63" x="971.3" y="842.3051">- &#24322;&#27493;&#22788;&#29702;</text><text fill="#000000" font-family="Verdana" font-size="13" lengthAdjust="spacing" textLength="63" x="971.3" y="858.1044">- &#32531;&#23384;&#20248;&#21270;</text></g><g id="elem_GMN50"><path d="M1229.8,478.7373 L1229.8,514.5673 L1114.49,525.3873 L1229.8,522.5673 L1229.8,551.9346 A0,0 0 0 0 1229.8,551.9346 L1339.8,551.9346 A0,0 0 0 0 1339.8,551.9346 L1339.8,488.7373 L1329.8,478.7373 L1229.8,478.7373 A0,0 0 0 0 1229.8,478.7373 " fill="#FFFFFF" style="stroke:#000000;stroke-width:1.0;"/><path d="M1329.8,478.7373 L1329.8,488.7373 L1339.8,488.7373 L1329.8,478.7373 " fill="#FFFFFF" style="stroke:#000000;stroke-width:1.0;"/><text fill="#000000" font-family="Verdana" font-size="13" lengthAdjust="spacing" textLength="65" x="1235.8" y="496.8071">&#32531;&#23384;&#31574;&#30053;&#65306;</text><text fill="#000000" font-family="Verdana" font-size="13" lengthAdjust="spacing" textLength="89" x="1235.8" y="512.6064">- &#20869;&#23384;LRU&#32531;&#23384;</text><text fill="#000000" font-family="Verdana" font-size="13" lengthAdjust="spacing" textLength="76" x="1235.8" y="528.4058">- &#30913;&#30424;&#25345;&#20037;&#21270;</text><text fill="#000000" font-family="Verdana" font-size="13" lengthAdjust="spacing" textLength="89" x="1235.8" y="544.2051">- &#33258;&#21160;&#36807;&#26399;&#28165;&#29702;</text></g><g id="elem_GMN53"><path d="M1223.3,586.7373 L1223.3,618.5073 L1115.32,621.0273 L1223.3,626.5073 L1223.3,659.9346 A0,0 0 0 0 1223.3,659.9346 L1346.3,659.9346 A0,0 0 0 0 1346.3,659.9346 L1346.3,596.7373 L1336.3,586.7373 L1223.3,586.7373 A0,0 0 0 0 1223.3,586.7373 " fill="#FFFFFF" style="stroke:#000000;stroke-width:1.0;"/><path d="M1336.3,586.7373 L1336.3,596.7373 L1346.3,596.7373 L1336.3,586.7373 " fill="#FFFFFF" style="stroke:#000000;stroke-width:1.0;"/><text fill="#000000" font-family="Verdana" font-size="13" lengthAdjust="spacing" textLength="65" x="1229.3" y="604.8071">&#24182;&#21457;&#25511;&#21046;&#65306;</text><text fill="#000000" font-family="Verdana" font-size="13" lengthAdjust="spacing" textLength="102" x="1229.3" y="620.6064">- &#26368;&#22823;&#24182;&#21457;&#25968;&#38480;&#21046;</text><text fill="#000000" font-family="Verdana" font-size="13" lengthAdjust="spacing" textLength="76" x="1229.3" y="636.4058">- &#20449;&#21495;&#37327;&#25511;&#21046;</text><text fill="#000000" font-family="Verdana" font-size="13" lengthAdjust="spacing" textLength="63" x="1229.3" y="652.2051">- &#38431;&#21015;&#31649;&#29702;</text></g><g id="elem_GMN56"><path d="M717.15,237.8373 L717.15,326.8339 L827.15,326.8339 L827.15,247.8373 L817.15,237.8373 L717.15,237.8373 " fill="#FFFFFF" style="stroke:#000000;stroke-width:1.0;"/><path d="M817.15,237.8373 L817.15,247.8373 L827.15,247.8373 L817.15,237.8373 " fill="#FFFFFF" style="stroke:#000000;stroke-width:1.0;"/><text fill="#000000" font-family="Verdana" font-size="13" lengthAdjust="spacing" textLength="65" x="723.15" y="255.9071">&#24615;&#33021;&#25351;&#26631;&#65306;</text><text fill="#000000" font-family="Verdana" font-size="13" lengthAdjust="spacing" textLength="89" x="723.15" y="271.7064">- &#28210;&#26579;&#26102;&#38388;&#32479;&#35745;</text><text fill="#000000" font-family="Verdana" font-size="13" lengthAdjust="spacing" textLength="76" x="723.15" y="287.5058">- &#32531;&#23384;&#21629;&#20013;&#29575;</text><text fill="#000000" font-family="Verdana" font-size="13" lengthAdjust="spacing" textLength="76" x="723.15" y="303.3051">- &#38169;&#35823;&#29575;&#20998;&#26512;</text><text fill="#000000" font-family="Verdana" font-size="13" lengthAdjust="spacing" textLength="89" x="723.15" y="319.1044">- &#26684;&#24335;&#20351;&#29992;&#32479;&#35745;</text></g><g id="elem_GMN59"><path d="M415,58.7373 L415,131.9346 L579,131.9346 L579,68.7373 L569,58.7373 L415,58.7373 " fill="#FFFFFF" style="stroke:#000000;stroke-width:1.0;"/><path d="M569,58.7373 L569,68.7373 L579,68.7373 L569,58.7373 " fill="#FFFFFF" style="stroke:#000000;stroke-width:1.0;"/><text fill="#000000" font-family="Verdana" font-size="13" lengthAdjust="spacing" textLength="130" x="421" y="76.8071">&#25193;&#23637;&#21151;&#33021;&#65288;&#26410;&#23454;&#29616;&#65289;&#65306;</text><text fill="#000000" font-family="Verdana" font-size="13" lengthAdjust="spacing" textLength="143" x="421" y="92.6064">- &#25209;&#37327;&#22788;&#29702;&#22810;&#20010;UML&#25991;&#20214;</text><text fill="#000000" font-family="Verdana" font-size="13" lengthAdjust="spacing" textLength="89" x="421" y="108.4058">- &#24182;&#34892;&#28210;&#26579;&#20248;&#21270;</text><text fill="#000000" font-family="Verdana" font-size="13" lengthAdjust="spacing" textLength="63" x="421" y="124.2051">- &#36827;&#24230;&#36319;&#36394;</text></g><!--link ide_user to ai_assistant--><g id="link_ide_user_ai_assistant"><path d="M65.15,855.3373 C105.17,855.3373 174.86,855.3373 211.73,855.3373 " fill="none" id="ide_user-to-ai_assistant" style="stroke:#000000;stroke-width:1.0;"/><polygon fill="#000000" points="217.73,855.3373,208.73,851.3373,212.73,855.3373,208.73,859.3373,217.73,855.3373" style="stroke:#000000;stroke-width:1.0;"/><text fill="#000000" font-family="Verdana" font-size="13" lengthAdjust="spacing" textLength="78" x="96" y="852.4071">&#35831;&#27714;&#22270;&#34920;&#29983;&#25104;</text></g><!--link ai_assistant to render_uml--><g id="link_ai_assistant_render_uml"><path d="M262.29,858.2573 C274.71,859.8073 290.71,861.5573 305,862.3373 C427.02,868.9873 462,874.6273 579,839.3373 C624.29,825.6773 643.42,827.4273 674,791.3373 C702.9,757.2373 674.91,729.2873 704,695.3373 C711.27,686.8573 715.8389,682.981 725.8689,678.081 " fill="none" id="ai_assistant-to-render_uml" style="stroke:#000000;stroke-width:1.0;"/><polygon fill="#000000" points="731.26,675.4473,721.4176,675.8038,726.7674,677.6421,724.9292,682.9919,731.26,675.4473" style="stroke:#000000;stroke-width:1.0;"/><text fill="#000000" font-family="Verdana" font-size="13" lengthAdjust="spacing" textLength="78" x="458" y="836.4071">&#35843;&#29992;&#28210;&#26579;&#26381;&#21153;</text></g><!--link ai_assistant to save_to_file--><g id="link_ai_assistant_save_to_file"><path d="M262.43,827.4973 C290.65,792.5273 343.41,732.6973 400.44,696.3373 C415.04,687.0273 426.7856,681.6669 442.7356,676.1869 " fill="none" id="ai_assistant-to-save_to_file" style="stroke:#000000;stroke-width:1.0;"/><polygon fill="#000000" points="448.41,674.2373,438.5986,673.3787,443.6813,675.862,441.1981,680.9446,448.41,674.2373" style="stroke:#000000;stroke-width:1.0;"/><text fill="#000000" font-family="Verdana" font-size="13" lengthAdjust="spacing" textLength="78" x="306" y="707.2271">&#20445;&#23384;&#22270;&#34920;&#25991;&#20214;</text></g><!--link ai_assistant to validate_syntax--><g id="link_ai_assistant_validate_syntax"><path d="M244.15,894.7673 C252.87,974.3573 285.01,1153.0673 400.44,1229.3373 C466.65,1273.0873 500.35,1239.9073 579,1229.3373 C622.39,1223.5073 644.07,1235.2773 674,1203.3373 C738.55,1134.4573 764.2109,827.1619 769.6209,751.7119 " fill="none" id="ai_assistant-to-validate_syntax" style="stroke:#000000;stroke-width:1.0;"/><polygon fill="#000000" points="770.05,745.7273,765.4166,754.4182,769.6924,750.7145,773.3961,754.9903,770.05,745.7273" style="stroke:#000000;stroke-width:1.0;"/><text fill="#000000" font-family="Verdana" font-size="13" lengthAdjust="spacing" textLength="80" x="457" y="1226.4071">&#39564;&#35777;UML&#20195;&#30721;</text></g><!--link ai_assistant to generate_url--><g id="link_ai_assistant_generate_url"><path d="M262.37,857.9773 C293.48,860.5473 351.21,860.3373 385,829.3373 C404.34,811.5973 383.4,792.3073 400.44,772.3373 C413.07,757.5273 426.2194,749.687 443.7794,743.127 " fill="none" id="ai_assistant-to-generate_url" style="stroke:#000000;stroke-width:1.0;"/><polygon fill="#000000" points="449.4,741.0273,439.5693,740.4298,444.7162,742.7771,442.3689,747.924,449.4,741.0273" style="stroke:#000000;stroke-width:1.0;"/><text fill="#000000" font-family="Verdana" font-size="13" lengthAdjust="spacing" textLength="78" x="306" y="826.4071">&#29983;&#25104;&#39044;&#35272;&#38142;&#25509;</text></g><!--link developer to render_uml--><g id="link_developer_render_uml"><path d="M261.35,589.1173 C290.45,623.6473 344.86,690.2473 385,751.3373 C392.8,763.2173 388.2,772.1073 400.44,779.3373 C506.35,841.8873 578.62,815.0073 674,737.3373 C691.79,722.8573 686.51,710.1773 704,695.3373 C713.11,687.6073 718.9326,683.7463 729.5826,678.6763 " fill="none" id="developer-to-render_uml" style="stroke:#000000;stroke-width:1.0;"/><polygon fill="#000000" points="735,676.0973,725.1545,676.3542,730.4855,678.2465,728.5932,683.5774,735,676.0973" style="stroke:#000000;stroke-width:1.0;"/><text fill="#000000" font-family="Verdana" font-size="13" lengthAdjust="spacing" textLength="74" x="460" y="776.4071">&#30452;&#25509;&#35843;&#29992;API</text></g><!--link developer to get_metrics--><g id="link_developer_get_metrics"><path d="M261.46,547.5573 C273.49,537.8373 289.36,526.2073 305,518.3373 C350.26,495.5473 400.1865,480.9611 439.7465,471.4411 " fill="none" id="developer-to-get_metrics" style="stroke:#000000;stroke-width:1.0;"/><polygon fill="#000000" points="445.58,470.0373,435.8939,468.254,440.7188,471.2071,437.7657,476.032,445.58,470.0373" style="stroke:#000000;stroke-width:1.0;"/><text fill="#000000" font-family="Verdana" font-size="13" lengthAdjust="spacing" textLength="52" x="319" y="485.0371">&#30417;&#25511;&#24615;&#33021;</text></g><!--link developer to get_formats--><g id="link_developer_get_formats"><path d="M261.44,562.2073 C299.67,556.3673 377.299,544.4946 433.649,535.8746 " fill="none" id="developer-to-get_formats" style="stroke:#000000;stroke-width:1.0;"/><polygon fill="#000000" points="439.58,534.9673,430.0786,532.3742,434.6375,535.7234,431.2883,540.2822,439.58,534.9673" style="stroke:#000000;stroke-width:1.0;"/><text fill="#000000" font-family="Verdana" font-size="13" lengthAdjust="spacing" textLength="52" x="319" y="540.5771">&#26597;&#35810;&#21151;&#33021;</text></g><!--link developer to get_info--><g id="link_developer_get_info"><path d="M261.45,578.1873 C273.6,585.0573 289.6,592.8073 305,596.3373 C348.8,606.3873 393.766,605.5147 432.026,601.9447 " fill="none" id="developer-to-get_info" style="stroke:#000000;stroke-width:1.0;"/><polygon fill="#000000" points="438,601.3873,428.6673,598.2408,433.0216,601.8518,429.4105,606.2062,438,601.3873" style="stroke:#000000;stroke-width:1.0;"/><text fill="#000000" font-family="Verdana" font-size="13" lengthAdjust="spacing" textLength="78" x="306" y="593.4071">&#33719;&#21462;&#29256;&#26412;&#20449;&#24687;</text></g><!--link admin to config_mgmt--><g id="link_admin_config_mgmt"><path d="M275.39,369.1173 C320.12,374.0273 392.4858,381.9727 442.7758,387.4927 " fill="none" id="admin-to-config_mgmt" style="stroke:#000000;stroke-width:1.0;"/><polygon fill="#000000" points="448.74,388.1473,440.2302,383.1892,443.7699,387.6018,439.3573,391.1415,448.74,388.1473" style="stroke:#000000;stroke-width:1.0;"/><text fill="#000000" font-family="Verdana" font-size="13" lengthAdjust="spacing" textLength="52" x="319" y="369.9171">&#37197;&#32622;&#26381;&#21153;</text></g><!--link admin to get_metrics--><g id="link_admin_get_metrics"><path d="M275.48,390.0773 C284.76,395.9873 295,401.8673 305,406.3373 C350.09,426.4873 398.7791,439.4128 438.0191,448.0128 " fill="none" id="admin-to-get_metrics" style="stroke:#000000;stroke-width:1.0;"/><polygon fill="#000000" points="443.88,449.2973,435.945,443.4633,438.9959,448.2269,434.2323,451.2778,443.88,449.2973" style="stroke:#000000;stroke-width:1.0;"/><text fill="#000000" font-family="Verdana" font-size="13" lengthAdjust="spacing" textLength="52" x="319" y="403.4071">&#31995;&#32479;&#30417;&#25511;</text></g><!--link admin to logging--><g id="link_admin_logging"><path d="M275.23,342.6773 C368.61,283.8773 634.56,136.6173 840.3,220.3373 C944.75,262.8373 1023.7227,375.5192 1050.3927,417.3192 " fill="none" id="admin-to-logging" style="stroke:#000000;stroke-width:1.0;"/><polygon fill="#000000" points="1053.62,422.3773,1052.1512,412.6386,1050.9306,418.1622,1045.407,416.9416,1053.62,422.3773" style="stroke:#000000;stroke-width:1.0;"/><text fill="#000000" font-family="Verdana" font-size="13" lengthAdjust="spacing" textLength="52" x="615.5" y="193.6071">&#26597;&#30475;&#26085;&#24535;</text></g><!--link render_uml to cache_mgmt--><g id="link_render_uml_cache_mgmt"><path d="M802.82,647.7373 C822.01,638.3573 847.56,625.9773 870.3,615.3373 C928.27,588.2173 991.1659,560.0814 1028.8359,543.3614 " fill="none" id="render_uml-to-cache_mgmt" style="stroke:#000000;stroke-width:1.0;stroke-dasharray:7.0,7.0;"/><polygon fill="#000000" points="1034.32,540.9273,1024.4711,540.9225,1029.7499,542.9557,1027.7166,548.2345,1034.32,540.9273" style="stroke:#000000;stroke-width:1.0;"/><text fill="#000000" font-family="Verdana" font-size="13" lengthAdjust="spacing" textLength="63" x="871.3" y="583.2371">&#171;include&#187;</text></g><!--link render_uml to concurrency_ctrl--><g id="link_render_uml_concurrency_ctrl"><path d="M831.07,653.9373 C885.88,645.9873 961.1022,635.0891 1011.4022,627.7891 " fill="none" id="render_uml-to-concurrency_ctrl" style="stroke:#000000;stroke-width:1.0;stroke-dasharray:7.0,7.0;"/><polygon fill="#000000" points="1017.34,626.9273,1007.8588,624.2614,1012.3918,627.6454,1009.0078,632.1785,1017.34,626.9273" style="stroke:#000000;stroke-width:1.0;"/><text fill="#000000" font-family="Verdana" font-size="13" lengthAdjust="spacing" textLength="63" x="871.3" y="637.1471">&#171;include&#187;</text></g><!--link render_uml to error_handling--><g id="link_render_uml_error_handling"><path d="M833.17,669.7973 C887.52,676.5473 960.5158,685.6274 1010.2458,691.8074 " fill="none" id="render_uml-to-error_handling" style="stroke:#000000;stroke-width:1.0;stroke-dasharray:7.0,7.0;"/><polygon fill="#000000" points="1016.2,692.5473,1007.762,687.4679,1011.2382,691.9307,1006.7754,695.4069,1016.2,692.5473" style="stroke:#000000;stroke-width:1.0;"/><text fill="#000000" font-family="Verdana" font-size="13" lengthAdjust="spacing" textLength="63" x="871.3" y="672.0771">&#171;include&#187;</text></g><!--link render_uml to logging--><g id="link_render_uml_logging"><path d="M786.75,646.3473 C804.78,625.5973 838.08,588.8073 870.3,561.3373 C909.42,527.9773 922.07,523.1673 965.3,495.3373 C989.98,479.4573 1013.761,465.4024 1033.671,453.9324 " fill="none" id="render_uml-to-logging" style="stroke:#000000;stroke-width:1.0;stroke-dasharray:7.0,7.0;"/><polygon fill="#000000" points="1038.87,450.9373,1029.0748,451.964,1034.5375,453.4332,1033.0683,458.8959,1038.87,450.9373" style="stroke:#000000;stroke-width:1.0;"/><text fill="#000000" font-family="Verdana" font-size="13" lengthAdjust="spacing" textLength="63" x="871.3" y="511.4971">&#171;include&#187;</text></g><!--link save_to_file to render_uml--><g id="link_save_to_file_render_uml"><path d="M569.77,661.5973 C611.18,661.7473 656.94,661.9152 697.62,662.0652 " fill="none" id="save_to_file-to-render_uml" style="stroke:#000000;stroke-width:1.0;stroke-dasharray:7.0,7.0;"/><polygon fill="#000000" points="703.62,662.0873,694.6348,658.0541,698.62,662.0689,694.6053,666.0541,703.62,662.0873" style="stroke:#000000;stroke-width:1.0;"/><text fill="#000000" font-family="Verdana" font-size="13" lengthAdjust="spacing" textLength="63" x="610" y="658.8171">&#171;include&#187;</text></g><!--link validate_syntax to error_handling--><g id="link_validate_syntax_error_handling"><path d="M835.93,723.4173 C866.01,720.5173 902.54,716.8773 935.3,713.3373 C962,710.4473 985.8528,707.6723 1009.9328,704.7823 " fill="none" id="validate_syntax-to-error_handling" style="stroke:#000000;stroke-width:1.0;stroke-dasharray:7.0,7.0;"/><polygon fill="#000000" points="1015.89,704.0673,1006.4775,701.1683,1010.9256,704.6631,1007.4308,709.1113,1015.89,704.0673" style="stroke:#000000;stroke-width:1.0;"/><text fill="#000000" font-family="Verdana" font-size="13" lengthAdjust="spacing" textLength="63" x="871.3" y="710.4071">&#171;include&#187;</text></g><!--link generate_url to validate_syntax--><g id="link_generate_url_validate_syntax"><path d="M564.82,729.3373 C606.99,729.3373 655.29,729.3373 697.6,729.3373 " fill="none" id="generate_url-to-validate_syntax" style="stroke:#000000;stroke-width:1.0;stroke-dasharray:7.0,7.0;"/><polygon fill="#000000" points="703.6,729.3373,694.6,725.3373,698.6,729.3373,694.6,733.3373,703.6,729.3373" style="stroke:#000000;stroke-width:1.0;"/><text fill="#000000" font-family="Verdana" font-size="13" lengthAdjust="spacing" textLength="63" x="610" y="726.4071">&#171;include&#187;</text></g><!--link batch_render to render_uml--><g id="link_batch_render_render_uml"><path d="M548.15,1114.5373 C588.8,1110.1773 644.09,1097.1073 674,1059.3373 C724.4,995.7173 658.3,762.4073 704,695.3373 C710.07,686.4273 713.8979,682.5195 723.5579,677.6695 " fill="none" id="batch_render-to-render_uml" style="stroke:#000000;stroke-width:1.0;stroke-dasharray:7.0,7.0;"/><polygon fill="#000000" points="728.92,674.9773,719.0821,675.4408,724.4516,677.2208,722.6716,682.5903,728.92,674.9773" style="stroke:#000000;stroke-width:1.0;"/><text fill="#000000" font-family="Verdana" font-size="13" lengthAdjust="spacing" textLength="61" x="611" y="1056.4071">&#171;extend&#187;</text></g><!--link optimize_diagram to render_uml--><g id="link_optimize_diagram_render_uml"><path d="M547.75,983.5773 C588.16,978.5173 643.31,964.6873 674,927.3373 C740.02,847.0173 643.48,779.8773 704,695.3373 C710.28,686.5673 714.1779,682.7095 723.8379,677.8595 " fill="none" id="optimize_diagram-to-render_uml" style="stroke:#000000;stroke-width:1.0;stroke-dasharray:7.0,7.0;"/><polygon fill="#000000" points="729.2,675.1673,719.3621,675.6308,724.7316,677.4108,722.9516,682.7803,729.2,675.1673" style="stroke:#000000;stroke-width:1.0;"/><text fill="#000000" font-family="Verdana" font-size="13" lengthAdjust="spacing" textLength="61" x="611" y="924.4071">&#171;extend&#187;</text></g><!--link format_convert to render_uml--><g id="link_format_convert_render_uml"><path d="M548,1049.0973 C588.56,1044.4173 643.79,1030.9673 674,993.3373 C757.33,889.5273 628.05,804.6573 704,695.3373 C710.15,686.4873 714.0079,682.5895 723.6679,677.7395 " fill="none" id="format_convert-to-render_uml" style="stroke:#000000;stroke-width:1.0;stroke-dasharray:7.0,7.0;"/><polygon fill="#000000" points="729.03,675.0473,719.1921,675.5108,724.5616,677.2908,722.7816,682.6603,729.03,675.0473" style="stroke:#000000;stroke-width:1.0;"/><text fill="#000000" font-family="Verdana" font-size="13" lengthAdjust="spacing" textLength="61" x="611" y="990.4071">&#171;extend&#187;</text></g><!--link template_mgmt to validate_syntax--><g id="link_template_mgmt_validate_syntax"><path d="M536.89,1191.0973 C576.23,1198.4573 636.45,1202.4973 674,1170.3373 C740.69,1113.2273 764.6348,824.4029 769.6848,751.5929 " fill="none" id="template_mgmt-to-validate_syntax" style="stroke:#000000;stroke-width:1.0;stroke-dasharray:7.0,7.0;"/><polygon fill="#000000" points="770.1,745.6073,765.4869,754.309,769.754,750.5953,773.4677,754.8625,770.1,745.6073" style="stroke:#000000;stroke-width:1.0;"/><text fill="#000000" font-family="Verdana" font-size="13" lengthAdjust="spacing" textLength="61" x="611" y="1167.4071">&#171;extend&#187;</text></g><!--link render_uml to GMN47--><g id="link_render_uml_GMN47"><path d="M807.65,676.3673 C818.58,681.5573 830.38,687.9973 840.3,695.3373 C855.97,706.9373 854.62,715.7573 870.3,727.3373 C899.02,748.5473 933.27,767.0673 964.87,781.9273 " fill="none" id="render_uml-GMN47" style="stroke:#000000;stroke-width:1.0;stroke-dasharray:7.0,7.0;"/></g><!--link get_metrics to GMN56--><g id="link_get_metrics_GMN56"><path d="M536.45,445.9973 C550.23,440.6173 565.65,433.8873 579,426.3373 C629.43,397.7973 681.74,357.7973 719.03,327.1973 " fill="none" id="get_metrics-GMN56" style="stroke:#000000;stroke-width:1.0;stroke-dasharray:7.0,7.0;"/></g><!--link batch_render to GMN59--><g id="link_batch_render_GMN59"><path d="M445.65,1115.4073 C409.1,1111.7173 362.27,1100.1773 337.72,1066.8373 C279.08,987.2073 286.12,261.1973 337.72,176.8373 C354.9,148.7473 385.16,129.9473 414.72,117.5573 " fill="none" id="batch_render-GMN59" style="stroke:#000000;stroke-width:1.0;stroke-dasharray:7.0,7.0;"/></g><!--SRC=[XLLTJzj857tthvZbfKzqtrSLKhMxgf3e2dN5lbgkCmdMnZPo1jJkQYLI6fBm4K1yfIKbX4AXg11O48Gc8N_6CtQU-0ixdd7CZ0FiesVElJxtpZdt_e36eGd1H5epB0KPA0t1sCiHyFBdKK0Q_vBgAgaiuhaQ60JUsg5xCu-tRXGb3PC881iuHceSWOJXG1qPjgKecevi1mpWrZHUMl6dSmD0ou04d89fUm8wlUldmtZkAodEirlDKBLCniWWpK8zmF0llzA_aS8LGnW9g4vcxiAzywRNh7edDMzv5g-KUPQ4IVah4vh-fvQ2OE2-6WR0tme0D9EkPIY4Nr4WBScl7R8q3hGIq54dpRI8T3kVy76Pmt3Xb6patUObmsUqAQWYMqqQQIX6T8yM_7gMvlRhn-HydM6djBIHq11KCsyjfBqHuTvQbHIMkxll_OF2sAiH1az12pe1VDAHoFYbAxoqGQOF_9asMSYJdNm8Hwe9aMFe6Qd8whvVtoLhTRAG9Jijt5gAq4dRCJMKkIStwvRRgP5iFK8RLjAcK8brQvMsXRy3m-cQFWvLCsKY4OQlBwaOIEa05tZJTDlI9ntQQlsjgYEvkkxQ1xzUntllUpcXuzYEEgvPYRHXfQJIDlTnPzC_ESLjtk2qdKh5CDtSejS-4IdQLj98SOx_27eXnQ_uR1tFLMbNupefNdVpIrmjBCTh3UdZAfUAL2WJYDiguuKD1hGda64QVq4rOMWfHpEbhEmn_FOtihZBmFmvL4fm2ZfI0ybXZNpg24KWQ5A_8XYLyGIuZQR_9HjQD7TEBQBqR0C61uSabu6VW5-_8cVlE64kFaL2125tNWW2JcS2HmfkwWyGpK13HDTmo_I7n3n1eoBdkCtFtawsFqJq1SMBrkcktf3Ilg940wU_3c_hWa9uDSz7XsDGmKGC6wYME-qUOEWV2kGcu-Av1nXO9sWXCvTNB93ADsukEY-3iSM0WZ23BZ3TzXeTWMBy-1naB0LGQ0FEowlCSvy48i6pkUxCeIGIeJbFdmu93gRXpvuPbfwUJC2XeJvSpCAFesKFFuwzOo-254bR0KvwLH4QbzJ_4f045Q3xHIbHUGBui93wACw4-_Z1DuWUqF3uJ7WKBC-4Hw7IJ7YmZ0XEg-3y_Ve5APSKoqOmNETsKbw3PAU1EpDStRUjZ_Ha48GBfJXDAiNHDBLcj4QzioRUdcUWqTzU_FZx7o_2INUpYlFVsJbklIF7-tp6imE-IFZWLEYlGS16YN6IbakuUeutlFNz7YUgRdesycgCN_BCdxFULfbITQzpGVBWpCyVuRb3lvCdbIffv08I3_wpVrE9sopgHcKQxns4D-kdtG_Bz9BTK9_ZfQjWVR00TjOjLt5Xau_p1_yihtDnsqS_vRDuyxAxUK77W7zI4tg9LzfkuzWhvVaVsLAbNxWmIxQNUJXx5RVTeJ88msDSNji8sMP09hRmn5rvswBZx0YVR7kbqzjMCIB7TYP_OhptqMqSKO64Iu2zrVMbNrlW9OJlpfwciuM_V_6lgdxZw8xEVm00]--></g></svg>